<?xml version="1.0" encoding="UTF-8" standalone="no"?>
<!-- Created with Inkscape (http://www.inkscape.org/) -->

<svg
   version="1.1"
   id="svg1"
   width="32"
   height="32"
   viewBox="0 0 32 32"
   sodipodi:docname="aladin-logo.svg"
   xml:space="preserve"
   inkscape:version="1.3.2 (091e20ef0f, 2023-11-25, custom)"
   xmlns:inkscape="http://www.inkscape.org/namespaces/inkscape"
   xmlns:sodipodi="http://sodipodi.sourceforge.net/DTD/sodipodi-0.dtd"
   xmlns="http://www.w3.org/2000/svg"
   xmlns:svg="http://www.w3.org/2000/svg"><defs
     id="defs1"><filter
       inkscape:label="Pixellize"
       inkscape:menu="Pixel Tools"
       inkscape:menu-tooltip="Reduce or remove antialiasing around shapes"
       style="color-interpolation-filters:sRGB;"
       id="filter41"
       x="0"
       y="0"
       width="1"
       height="1"><feColorMatrix
         values="1 0 0 0 0 0 1 0 0 0 0 0 1 0 0 0 0 0 1000 -500 "
         id="feColorMatrix41" /></filter></defs><sodipodi:namedview
     id="namedview1"
     pagecolor="#505050"
     bordercolor="#ffffff"
     borderopacity="1"
     inkscape:showpageshadow="0"
     inkscape:pageopacity="0"
     inkscape:pagecheckerboard="1"
     inkscape:deskcolor="#d1d1d1"
     inkscape:zoom="22.627417"
     inkscape:cx="20.130446"
     inkscape:cy="13.081475"
     inkscape:window-width="2560"
     inkscape:window-height="1412"
     inkscape:window-x="0"
     inkscape:window-y="0"
     inkscape:window-maximized="1"
     inkscape:current-layer="g1" /><g
     inkscape:groupmode="layer"
     inkscape:label="Image"
     id="g1"><g
       id="g41"
       transform="matrix(0.9822585,0,0,0.9822585,0.22790307,0.1097683)"
       style="filter:url(#filter41)"><path
         style="fill:#652c77;fill-opacity:1;stroke-width:0.0957155;stroke-linejoin:bevel"
         d="m 22.100889,19.95576 c -0.217476,-0.220152 -0.407591,-0.420485 -0.422478,-0.445184 -0.03098,-0.05139 0.03615,-0.35539 0.111777,-0.50621 0.0644,-0.128414 0.320681,-0.280205 0.529461,-0.313583 0.23335,-0.03731 0.329986,-0.128603 0.358824,-0.338994 0.05133,-0.374519 0.290707,-0.616322 0.666661,-0.673426 0.21526,-0.0327 0.278765,-0.09498 0.333328,-0.326906 0.100493,-0.427153 0.249533,-0.585777 0.623288,-0.663368 0.259482,-0.05387 0.334089,-0.12581 0.384066,-0.370347 0.07827,-0.382971 0.256406,-0.553073 0.672688,-0.642349 0.102357,-0.02195 0.208278,-0.06655 0.235379,-0.09911 0.03468,-0.04166 0.05483,-0.249017 0.06801,-0.699844 0.0166,-0.567568 0.02842,-0.660303 0.103647,-0.812978 0.09456,-0.191919 0.323689,-0.343998 0.589407,-0.391205 0.297569,-0.05287 0.280969,0.04553 0.280969,-1.665487 0,-1.731374 0.02511,-1.602314 -0.327805,-1.684791 -0.356976,-0.08343 -0.520889,-0.248738 -0.61392,-0.6191598 -0.08635,-0.3438196 -0.111588,-0.3558948 -0.743823,-0.3558948 -0.848175,0 -1.108272,-0.1105971 -1.219036,-0.5183537 -0.0317,-0.116692 -0.08498,-0.2669563 -0.118391,-0.3339207 l -0.06076,-0.1217535 h -1.542993 c -1.742128,0 -1.634155,-0.019231 -1.682678,0.2997009 C 20.28627,8.9370749 20.139079,9.1536594 19.935673,9.247688 19.771226,9.323707 19.696459,9.328823 18.5936,9.339516 L 17.425676,9.350839 17.31109,9.245859 C 17.013989,8.9736627 17.012602,8.0357185 17.30889,7.764128 17.420594,7.6617388 17.42459,7.6611058 17.959362,7.6611058 h 0.538078 l 0.219949,0.1326406 c 0.408272,0.2462095 0.901754,0.3316155 1.113696,0.1927456 0.158508,-0.1038587 0.20403,-0.209797 0.264548,-0.6156545 0.100917,-0.6767988 0.156138,-0.7212222 0.896523,-0.7212222 h 0.503841 l 0.183136,0.1232413 c 0.100725,0.067783 0.300503,0.1647173 0.443951,0.2154101 l 0.260814,0.092169 3.097973,0.018731 3.097972,0.018731 0.13646,0.1311191 c 0.07505,0.072116 0.16943,0.1950969 0.209726,0.273292 0.108271,0.2101041 0.323454,0.4323458 0.517194,0.5341618 0.212865,0.1118666 0.260915,0.1515015 0.387893,0.3199607 0.09906,0.1314157 0.101498,0.1472127 0.101498,0.6566257 0,0.5581976 0.0052,0.5772496 0.221155,0.8137389 0.0535,0.058583 0.181568,0.1494981 0.28459,0.2020331 0.197464,0.100693 0.468283,0.358178 0.468283,0.445227 0,0.08155 -0.261834,0.349643 -0.420587,0.430633 -0.184152,0.09395 -0.43013,0.315426 -0.499672,0.449905 -0.03966,0.07669 -0.05369,0.249505 -0.05348,0.658411 3.29e-4,0.63665 0.05408,0.877121 0.281302,1.258565 0.117159,0.196677 0.133382,0.250996 0.113721,0.380769 -0.02828,0.186625 -0.157626,0.420575 -0.284545,0.514639 -0.05241,0.03884 -0.193494,0.09626 -0.313533,0.127611 -0.207436,0.05417 -0.222208,0.05337 -0.298077,-0.01604 -0.120943,-0.110651 -0.360479,-0.220606 -0.663553,-0.304592 l -0.272958,-0.07564 -0.158038,0.09262 c -0.196225,0.114996 -0.390123,0.371443 -0.390123,0.515971 0,0.167994 0.178448,0.658325 0.302402,0.830929 0.106684,0.148554 0.110094,0.164833 0.07187,0.343076 -0.07788,0.36314 -0.251137,0.535284 -0.622359,0.61836 -0.182118,0.04076 -0.200487,0.03783 -0.319106,-0.05093 -0.277467,-0.207619 -0.747152,-0.352881 -1.012387,-0.313107 -0.219324,0.03289 -0.343284,0.162731 -0.424336,0.444466 -0.09766,0.339462 -0.327703,0.552138 -0.597227,0.552138 -0.162449,0 -0.339581,0.193957 -0.39231,0.42957 -0.07211,0.32222 -0.259699,0.50478 -0.580535,0.564969 -0.216258,0.04057 -0.387709,0.21007 -0.418207,0.413451 -0.04683,0.312279 -0.281552,0.547002 -0.593832,0.593831 -0.198608,0.02978 -0.382018,0.21012 -0.411243,0.404351 -0.01014,0.06741 -0.03806,0.25742 -0.06204,0.422256 -0.02398,0.164835 -0.05973,0.330104 -0.07945,0.367265 -0.03258,0.06139 -0.248215,0.216372 -0.293316,0.210819 -0.0103,-0.0013 -0.196665,-0.182431 -0.41414,-0.402583 z"
         id="path4" /><path
         style="fill:#652c77;fill-opacity:1;stroke-width:0.0957155;stroke-linejoin:bevel"
         d="M 10.386853,25.270924 C 10.340682,25.232402 10.1721,25.144457 10.012227,25.075491 L 9.7215475,24.950099 6.5858401,24.931368 3.4501328,24.912636 3.2952594,24.762786 C 3.210079,24.680368 3.1010066,24.536004 3.0528763,24.441976 2.953522,24.247878 2.7317616,24.033014 2.5184932,23.924213 2.4388926,23.883604 2.3116967,23.781676 2.2358355,23.697707 L 2.0979062,23.545035 v -0.507498 c 0,-0.676459 -0.070148,-0.814132 -0.5619392,-1.102866 -0.2274041,-0.133511 -0.4245762,-0.333727 -0.4245762,-0.431132 0,-0.0974 0.1971721,-0.297622 0.4245762,-0.431133 0.2663899,-0.156399 0.4084934,-0.291137 0.5014685,-0.475475 0.082008,-0.162594 0.083937,-0.953121 0.00309,-1.267719 -0.053393,-0.207775 -0.2600397,-0.672461 -0.3585391,-0.806246 -0.055,-0.0747 0.041092,-0.426737 0.1565497,-0.573517 0.1620135,-0.205967 0.6104386,-0.3511 0.7379713,-0.238846 0.1065157,0.09376 0.4241108,0.239775 0.6728071,0.309334 0.1938861,0.05423 0.2525285,0.05748 0.3451004,0.01914 0.1397222,-0.05787 0.4408322,-0.375923 0.4714693,-0.497991 0.048961,-0.195077 -0.2758285,-0.933199 -0.4920969,-1.118347 -0.03907,-0.03345 -0.137685,-0.07279 -0.2191444,-0.08742 -0.3628855,-0.06518 -0.5894105,-0.273813 -0.6584648,-0.606446 -0.084696,-0.407981 0.040821,-0.769589 0.3251377,-0.936706 0.1589121,-0.09341 0.2193703,-0.106821 0.481435,-0.106821 0.2604972,0 0.3229508,0.01367 0.4774397,0.10448 0.1977246,0.116227 0.2643282,0.22013 0.3460567,0.539857 0.083211,0.325526 0.3550592,0.526926 0.9240793,0.68461 0.2547196,0.07059 0.2882917,0.07203 0.4671277,0.02004 0.2147765,-0.06244 0.2938893,-0.151896 0.335036,-0.378845 0.058489,-0.322605 0.2265911,-0.509205 0.5221947,-0.579656 0.3424034,-0.08161 0.384765,-0.119351 0.4738747,-0.422234 0.1164383,-0.395772 0.2702144,-0.54555 0.6197219,-0.603608 0.215356,-0.03577 0.3341552,-0.165231 0.3909987,-0.42608 0.064566,-0.296284 0.2670792,-0.498797 0.5633624,-0.563363 0.3537913,-0.0771 0.4312074,-0.212216 0.50072,-0.873937 0.024651,-0.23466 0.1338562,-0.432552 0.2784937,-0.504662 0.085099,-0.04243 0.1147225,-0.02057 0.5285259,0.390009 l 0.4383738,0.434954 -0.06663,0.240295 c -0.09137,0.329516 -0.232199,0.469884 -0.5569804,0.555165 -0.3127743,0.08213 -0.365226,0.127857 -0.4154904,0.362233 -0.084867,0.395719 -0.2705977,0.58145 -0.6663171,0.666317 -0.2261164,0.04849 -0.2841771,0.107805 -0.3433253,0.350721 -0.09324,0.382926 -0.2540621,0.552462 -0.5929174,0.62504 -0.2685683,0.05752 -0.3685051,0.143823 -0.4003524,0.34572 -0.04463,0.282936 -0.161066,0.468765 -0.3554262,0.567255 -0.096796,0.04905 -0.2424947,0.101127 -0.3237747,0.115725 -0.2012271,0.03614 -0.2650398,0.102123 -0.3183966,0.329216 -0.092848,0.395172 -0.2409697,0.555098 -0.5978523,0.645498 -0.4110657,0.104126 -0.3741421,-0.111852 -0.3741421,2.188474 v 2.010644 l 0.084291,0.07659 c 0.04636,0.04212 0.1566743,0.08752 0.245143,0.100891 0.3295354,0.04979 0.5093345,0.21538 0.613672,0.565167 0.1204401,0.403769 0.1029979,0.394294 0.7258404,0.394294 0.9155933,0 1.1785711,0.135636 1.2924432,0.666603 0.021862,0.101938 0.073193,0.221239 0.1140688,0.265115 0.073417,0.0788 0.092406,0.07977 1.5630293,0.07977 1.2445712,0 1.5015162,-0.009 1.5668022,-0.0547 0.05214,-0.03652 0.09262,-0.128515 0.121793,-0.276826 0.02594,-0.131855 0.08849,-0.283961 0.153917,-0.374276 0.09185,-0.126793 0.151639,-0.164943 0.358771,-0.22892 0.22524,-0.06957 0.34606,-0.07677 1.288022,-0.07677 1.018793,0 1.041998,0.0017 1.166761,0.08516 0.188847,0.126337 0.25771,0.361924 0.243396,0.832676 -0.01346,0.442563 -0.07327,0.611436 -0.256711,0.724809 -0.11608,0.07174 -0.184333,0.08064 -0.618667,0.08064 H 13.53153 l -0.19469,-0.131016 c -0.10708,-0.07206 -0.338121,-0.174766 -0.513426,-0.228237 -0.28391,-0.0866 -0.337696,-0.09245 -0.492269,-0.05353 -0.297754,0.07498 -0.359469,0.174876 -0.420093,0.680014 -0.07927,0.660475 -0.139205,0.707317 -0.902826,0.705546 -0.468891,-0.0011 -0.548134,-0.01018 -0.621375,-0.07129 z"
         id="path5" /><path
         style="fill:#652c77;fill-opacity:1;stroke-width:0.0957155;stroke-linejoin:bevel"
         d="m 11.266467,12.457629 c -0.204136,0.01598 -0.206353,-0.195973 -0.217891,-0.3446 -0.03154,-0.435087 -0.05189,-0.875271 2.77e-4,-1.309444 -0.0067,-0.188941 0.153589,-0.294639 0.328497,-0.258288 0.209326,0.0278 0.146624,-0.21971 0.173755,-0.346739 0.02348,-0.158342 -0.0058,-0.3328749 0.06655,-0.4791556 0.09783,-0.1444426 0.278364,-0.1540335 0.436313,-0.15679 0.483622,-0.016337 0.967533,-0.022362 1.451299,-0.033459 0.331003,0.3347675 0.662006,0.6695346 0.993008,1.0043036 -0.03059,0.212085 -0.03477,0.427934 -0.07727,0.637828 -0.02788,0.16059 -0.121997,0.277005 -0.296467,0.264966 -0.544397,0.04083 -1.091133,0.03203 -1.636194,0.05933 -0.03118,0.250029 -0.02835,0.503834 -0.06613,0.752872 -0.07125,0.03715 -0.03285,0.167106 -0.17197,0.161189 -0.323079,0.05518 -0.657205,0.0861 -0.983786,0.04799 z"
         id="path6" /><path
         style="fill:#652c77;fill-opacity:1;stroke-width:0.00998032;stroke-linejoin:bevel"
         d="m 15.53125,10.38443 c -0.207763,0.0069 -0.378184,-0.169714 -0.407495,-0.368139 -0.07543,-0.3712039 -0.07515,-0.7629351 0.02871,-1.1283419 0.05406,-0.1400634 0.200735,-0.2825602 0.357883,-0.2571782 0.119021,0.083428 0.202894,0.2089924 0.311371,0.3064579 0.171602,0.1722347 0.340977,0.3470455 0.520554,0.5102734 0.0873,0.1053976 0.0084,0.2460419 -0.0013,0.3657419 -0.03672,0.1406983 -0.08738,0.2855849 -0.208725,0.3767009 -0.157498,0.148732 -0.396903,0.165436 -0.600998,0.194485 z"
         id="path7" /><path
         style="fill:#0857ae;fill-opacity:1;stroke-width:0.0564572;stroke-linejoin:bevel"
         d="m 30.433526,13.227545 c -0.07029,-0.07029 -0.275788,-0.470465 -0.313302,-0.610108 -0.01381,-0.05141 -0.0238,-0.31143 -0.02387,-0.621553 l -1.24e-4,-0.533164 0.14078,-0.151846 c 0.103165,-0.111275 0.189382,-0.177675 0.322689,-0.24852 0.207874,-0.110472 0.380406,-0.271331 0.470991,-0.439124 L 31.09232,10.509081 31.03741,10.40072 C 30.961866,10.25165 30.785118,10.065248 30.656426,9.9989318 30.452185,9.8936849 30.297071,9.7773924 30.196885,9.6544038 L 30.096232,9.5308417 V 9.0187682 c 0,-0.4960533 -0.0016,-0.5151281 -0.05223,-0.6097178 -0.10814,-0.2021802 -0.314779,-0.3996475 -0.48554,-0.4639882 -0.08071,-0.030409 -0.317082,-0.2120734 -0.345825,-0.2657801 -0.01215,-0.022711 -0.03526,-0.054498 -0.05134,-0.070637 -0.01609,-0.016139 -0.06782,-0.1028072 -0.114969,-0.192595 -0.09842,-0.187433 -0.243522,-0.340395 -0.405861,-0.4278465 L 28.527664,6.9274366 H 25.52307 c -2.66849,0 -3.016421,-0.00387 -3.110326,-0.034636 C 22.190797,6.8200975 21.89804,6.6749135 21.797359,6.5876199 l -0.07956,-0.068979 0.02722,-0.1104854 c 0.08516,-0.3456363 0.289039,-0.5594324 0.621293,-0.6515048 0.158463,-0.043912 0.217986,-0.044553 4.135507,-0.044553 3.540969,0 3.989547,0.00379 4.110502,0.034722 0.163983,0.041937 0.343239,0.1389345 0.4364,0.2361417 0.08592,0.089652 0.182173,0.2795148 0.217324,0.4286819 0.02124,0.090132 0.09166,0.1753229 0.134033,0.2154466 0.04238,0.040124 -0.03158,-0.00465 0.107175,0.1014736 0.138756,0.1061277 0.824686,0.9212717 0.833076,2.6748579 0,0 -0.575863,2.4480306 -0.852971,2.8936086 -0.209852,0.337433 -0.09938,0.142396 -0.230828,0.326734 -0.117551,0.164844 -0.171904,0.391333 -0.304157,0.484026 -0.0789,0.0553 -0.392303,0.18361 -0.448469,0.18361 -0.0036,0 -0.03526,-0.02873 -0.07038,-0.06385 z"
         id="path8"
         sodipodi:nodetypes="ssscssscssscscsscsscscscsssssszzczsssss" /><path
         style="fill:#0857ae;fill-opacity:1;stroke-width:0.0564572;stroke-linejoin:bevel"
         d="m 23.301378,20.37575 c -0.140149,-0.04432 -0.231878,-0.09963 -0.23371,-0.14091 -9.3e-4,-0.02096 -0.0062,-0.05799 -0.01171,-0.0823 -0.02587,-0.114177 -0.03443,-0.647075 -0.01172,-0.73025 0.05285,-0.193616 0.265821,-0.369005 0.509162,-0.41931 0.245802,-0.05081 0.416412,-0.236353 0.477024,-0.51877 0.0091,-0.04254 0.03502,-0.112143 0.05753,-0.154679 0.09116,-0.172271 0.190184,-0.240389 0.478938,-0.329468 0.257119,-0.07932 0.382725,-0.209909 0.437618,-0.454979 0.03054,-0.13633 0.142913,-0.33171 0.230939,-0.401515 0.04976,-0.03946 0.1582,-0.09084 0.248284,-0.117653 0.247702,-0.07371 0.27555,-0.08764 0.370153,-0.185108 0.0704,-0.07253 0.102275,-0.134398 0.155955,-0.302667 0.03711,-0.116328 0.08426,-0.236833 0.104768,-0.26779 0.05765,-0.087 0.171305,-0.173245 0.28535,-0.216535 0.0938,-0.03561 0.1143,-0.03635 0.215075,-0.0078 0.06127,0.01737 0.131283,0.04005 0.15559,0.0504 0.02431,0.01035 0.09888,0.04107 0.165728,0.06826 0.136081,0.05535 0.319011,0.156832 0.388187,0.215343 0.07939,0.06715 0.09762,0.11844 0.06436,0.181041 -0.03672,0.06912 -0.740026,0.764673 -0.861346,0.851857 -0.115674,0.08313 -0.113268,0.07834 -0.130026,0.258648 -0.01974,0.212395 -0.05487,0.343205 -0.120332,0.448022 -0.09857,0.157842 -0.222862,0.219688 -0.535416,0.266422 -0.287665,0.04301 -0.319333,0.06754 -0.340333,0.263633 -0.03878,0.362106 -0.122069,0.542576 -0.293467,0.635862 -0.100893,0.05491 -0.415864,0.126763 -0.555695,0.126763 -0.08337,0 -0.116797,0.06648 -0.161129,0.320408 -0.06524,0.373708 -0.128033,0.481236 -0.336475,0.5762 -0.201797,0.09194 -0.570518,0.124658 -0.753302,0.06685 z"
         id="path9" /><path
         style="fill:#962d2f;fill-opacity:1;stroke-width:0.0411377;stroke-linejoin:bevel"
         d="m 27.368875,17.932393 c -0.161051,-0.02479 -0.339834,-0.04369 -0.462298,-0.163256 -0.11771,-0.119562 -0.159383,-0.290986 -0.172132,-0.453415 0.02918,-0.074 0.102147,-0.115561 0.151935,-0.174397 0.160827,-0.161171 0.321653,-0.322343 0.482479,-0.483514 0.160023,0.01302 0.328308,0.04455 0.459304,0.143119 0.07224,0.05738 0.121315,0.142557 0.130359,0.234708 0.02517,0.100043 0.07265,0.201412 0.04723,0.30663 -0.01681,0.107661 -0.02544,0.220439 -0.07927,0.317451 -0.03202,0.07294 -0.07944,0.145278 -0.156929,0.175091 -0.114354,0.06366 -0.245375,0.08332 -0.373314,0.09879 l -0.01366,1e-5 -0.01371,-0.0012 z"
         id="path10" /><path
         style="fill:#962d2f;fill-opacity:1;stroke-width:0.0564572;stroke-linejoin:bevel"
         d="M 8.3979758,22.025381 C 8.2539948,21.954476 8.0572,21.745682 7.9544924,21.554856 7.8313775,21.326114 7.676243,21.171011 7.4473429,21.047811 7.3259916,20.982497 7.2275337,20.90814 7.1464858,20.820598 6.9254082,20.581808 6.9384853,20.664792 6.9384853,19.500679 c 0,-1.147938 -0.00998,-1.07576 0.1781866,-1.289199 0.096414,-0.109366 0.1979939,-0.18331 0.3742406,-0.272426 0.1361174,-0.06882 0.320361,-0.234582 0.3868482,-0.348034 0.054369,-0.09277 0.055096,-0.10067 0.055301,-0.600302 l 2.073e-4,-0.506291 0.063474,-0.110486 c 0.087715,-0.152679 0.2704581,-0.318509 0.4616232,-0.418899 0.2084774,-0.109482 0.3756075,-0.278537 0.4992499,-0.505 0.124205,-0.227494 0.2574386,-0.361052 0.4908696,-0.492065 0.2374197,-0.133252 0.4017703,-0.294444 0.4972536,-0.487698 0.081047,-0.164037 0.3063427,-0.412433 0.4398917,-0.484995 0.06878,-0.03737 0.142176,-0.04325 0.662912,-0.05307 0.528818,-0.01 0.594002,-0.01533 0.672536,-0.05524 0.110681,-0.05625 0.157837,-0.123064 0.19827,-0.280932 0.01778,-0.06944 0.04891,-0.161174 0.06916,-0.203855 0.0926,-0.195137 0.386191,-0.435796 0.568729,-0.46619 0.214228,-0.03567 0.332061,-0.146591 0.361044,-0.339861 0.02938,-0.195913 0.227026,-0.454171 0.442096,-0.577669 l 0.113175,-0.06499 0.505543,-3.45e-4 c 0.602397,-4.11e-4 0.732847,-0.02193 0.839712,-0.138544 0.0497,-0.05423 0.07941,-0.118881 0.103822,-0.225886 0.05495,-0.240923 0.216956,-0.445645 0.462155,-0.584027 l 0.119894,-0.06766 1.003631,-8.2e-5 c 0.971741,-8e-5 1.005983,-0.0015 1.077687,-0.04523 0.124659,-0.076 0.278865,-0.254897 0.377196,-0.437592 0.106065,-0.197063 0.270028,-0.370226 0.430398,-0.4545446 l 0.108252,-0.056917 2.510252,2.073e-4 2.510253,2.074e-4 0.111837,0.064148 c 0.140028,0.080318 0.340043,0.2941669 0.40562,0.4336759 0.106177,0.225882 0.257056,0.378221 0.526177,0.53127 0.204461,0.116277 0.356365,0.259028 0.447532,0.420567 l 0.06668,0.118148 v 0.997808 c 0,0.990227 -3.78e-4,0.998572 -0.04972,1.098398 -0.08273,0.16739 -0.25662,0.335567 -0.465019,0.449753 -0.229437,0.125714 -0.281972,0.169156 -0.405469,0.335287 l -0.09626,0.129489 v 0.507987 c 0,0.431721 -0.0056,0.5201 -0.03756,0.588666 -0.05437,0.116785 -0.315062,0.370343 -0.440684,0.42863 -0.232267,0.107768 -0.404069,0.273117 -0.528251,0.508409 -0.115113,0.21811 -0.280073,0.385088 -0.491642,0.497658 -0.222546,0.11841 -0.392192,0.285712 -0.502423,0.495483 -0.0933,0.177549 -0.234288,0.340407 -0.385923,0.445785 l -0.09944,0.0691 -0.585572,0.01359 c -0.388172,0.009 -0.61323,0.02321 -0.667613,0.04212 -0.114743,0.03991 -0.187194,0.124466 -0.217336,0.253646 -0.08386,0.359383 -0.388496,0.682087 -0.686027,0.726704 -0.190647,0.02859 -0.300913,0.143973 -0.33928,0.355026 -0.0087,0.04805 -0.03631,0.127404 -0.06128,0.176346 -0.06603,0.129427 -0.295273,0.345437 -0.44632,0.420555 -0.174083,0.08657 -0.319522,0.204164 -0.417357,0.337442 -0.06407,0.08728 -0.08269,0.13563 -0.09237,0.239864 -0.02107,0.226793 -0.03378,0.27184 -0.09585,0.339794 -0.04392,0.04809 -0.09303,0.07245 -0.178855,0.08873 -0.07317,0.01388 -0.722934,0.02244 -1.702968,0.02244 H 14.50232 l -0.09723,0.07029 c -0.173472,0.125419 -0.278204,0.252301 -0.367997,0.445828 -0.05829,0.125621 -0.311845,0.386311 -0.428629,0.440683 -0.07447,0.03467 -0.275105,0.03752 -2.607456,0.03706 -2.3325783,-4.64e-4 -2.532638,-0.0034 -2.6030342,-0.03806 z m 8.2209602,-2.168583 c 0.145051,-0.10408 0.235636,-0.21411 0.35041,-0.42563 0.09794,-0.180505 0.256336,-0.353805 0.387916,-0.424427 0.08163,-0.04382 0.131447,-0.04842 0.651864,-0.06023 0.364387,-0.0083 0.594614,-0.02281 0.651606,-0.04116 0.130781,-0.04211 0.223687,-0.152704 0.25621,-0.304989 0.06816,-0.31916 0.340736,-0.594292 0.674915,-0.681246 0.217386,-0.05656 0.280927,-0.12056 0.33021,-0.332571 0.05887,-0.253262 0.2508,-0.483921 0.520722,-0.625807 0.186635,-0.09811 0.311721,-0.201407 0.417864,-0.345088 l 0.08739,-0.118289 V 15.98745 c 0,-0.495063 0.0015,-0.512946 0.05319,-0.614137 0.07503,-0.147012 0.237515,-0.299933 0.432015,-0.406575 0.218851,-0.119993 0.31908,-0.202288 0.423339,-0.347589 l 0.08582,-0.119607 v -0.494026 c 0,-0.482247 -0.0013,-0.496013 -0.05259,-0.577334 -0.07373,-0.116792 -0.279591,-0.299401 -0.405126,-0.359361 -0.219539,-0.104861 -0.414267,-0.289102 -0.507962,-0.480607 -0.0784,-0.160243 -0.20238,-0.314445 -0.340772,-0.423838 l -0.112633,-0.08903 -2.588449,0.0059 c -2.451176,0.0056 -2.592229,0.008 -2.659718,0.0459 -0.09811,0.05509 -0.15568,0.143394 -0.184727,0.283361 -0.04552,0.219351 -0.200839,0.428654 -0.426916,0.575303 l -0.130483,0.08464 h -0.528168 c -0.321439,0 -0.567239,0.0098 -0.62799,0.02513 -0.132699,0.03341 -0.240067,0.137143 -0.271885,0.262667 -0.05027,0.198336 -0.09842,0.296388 -0.210319,0.4283 -0.138688,0.163495 -0.341541,0.288545 -0.502765,0.309932 -0.157968,0.02096 -0.271987,0.133239 -0.294095,0.289616 -0.03289,0.232681 -0.2593,0.522925 -0.496839,0.636931 -0.211581,0.101546 -0.419819,0.286702 -0.505002,0.449024 -0.0169,0.0322 -0.02533,0.21676 -0.02533,0.554526 v 0.50626 l -0.08446,0.130668 c -0.105395,0.163066 -0.247596,0.28955 -0.440355,0.391683 -0.157986,0.08371 -0.312879,0.215909 -0.410472,0.350337 l -0.05909,0.08139 v 0.518771 0.518772 l 0.08577,0.108505 c 0.119561,0.151256 0.240971,0.250096 0.414016,0.337051 0.190798,0.09588 0.372274,0.27949 0.471964,0.477525 0.08128,0.161462 0.247456,0.356472 0.376174,0.441445 l 0.07734,0.05106 2.498898,0.0013 2.498898,0.0013 z"
         id="path11" /><path
         style="fill:#912c2e;fill-opacity:1;stroke-width:0.0564572;stroke-linejoin:bevel"
         d="m 12.386642,19.015235 c -0.150854,-0.08599 -0.332569,-0.267399 -0.39882,-0.398138 -0.05426,-0.107083 -0.05539,-0.11951 -0.05539,-0.607971 0,-0.494008 5.39e-4,-0.499717 0.05781,-0.612743 0.08061,-0.159083 0.276098,-0.344777 0.468436,-0.444974 0.207042,-0.107858 0.390471,-0.289458 0.490472,-0.48558 0.151983,-0.298074 0.398694,-0.498811 0.695803,-0.566143 0.142942,-0.0324 0.222554,-0.112007 0.254948,-0.254948 0.07859,-0.346801 0.390952,-0.679753 0.68126,-0.726175 0.202583,-0.03239 0.291422,-0.121353 0.343308,-0.343769 0.0555,-0.237922 0.261217,-0.489348 0.487346,-0.595641 0.09259,-0.04352 0.136203,-0.04694 0.598829,-0.04694 h 0.498968 l 0.09592,-0.066 c 0.135209,-0.09303 0.280694,-0.266657 0.366487,-0.43739 0.08592,-0.170981 0.279155,-0.374038 0.421544,-0.442968 0.09741,-0.04716 0.11739,-0.04801 1.115499,-0.04801 h 1.016314 l 0.127306,0.07666 c 0.142685,0.08592 0.228081,0.169959 0.337198,0.331842 l 0.07428,0.11019 v 0.538984 0.538984 l -0.06722,0.117485 c -0.07987,0.13959 -0.258498,0.307065 -0.396821,0.372037 -0.250114,0.11748 -0.425006,0.290952 -0.557047,0.552523 -0.07688,0.152305 -0.29724,0.382696 -0.421555,0.44075 -0.04602,0.02149 -0.140483,0.05386 -0.209922,0.07192 -0.212734,0.05535 -0.267231,0.109849 -0.322583,0.322583 -0.04628,0.177871 -0.09345,0.268276 -0.204292,0.39156 -0.129142,0.143637 -0.286881,0.241306 -0.451881,0.279798 -0.222416,0.05189 -0.311375,0.140726 -0.343769,0.343308 -0.0305,0.190726 -0.232858,0.453714 -0.440552,0.572544 l -0.114225,0.06535 h -0.511845 c -0.440316,0 -0.520228,0.0052 -0.571834,0.03704 -0.124583,0.07693 -0.326798,0.306846 -0.400244,0.455078 -0.09074,0.183128 -0.259401,0.364516 -0.423882,0.45586 l -0.123321,0.06849 -1.003631,-0.0017 -1.00363,-0.0017 z m 4.244328,-2.102953 c 0.132699,-0.03341 0.240067,-0.137143 0.271885,-0.262667 0.05027,-0.198336 0.09842,-0.296388 0.210319,-0.4283 0.137168,-0.161703 0.341767,-0.288575 0.499006,-0.309433 0.183935,-0.0244 0.308557,-0.176759 0.308557,-0.377233 0,-0.107177 -0.173194,-0.306067 -0.38167,-0.438296 -0.05662,-0.03591 -0.138646,-0.03831 -1.082757,-0.03168 -0.773299,0.0054 -1.042908,0.01429 -1.109625,0.03647 -0.135495,0.04504 -0.222637,0.152544 -0.261395,0.322458 -0.07619,0.334025 -0.325117,0.568897 -0.723742,0.682882 -0.0677,0.01936 -0.144429,0.05791 -0.170506,0.08567 -0.05044,0.05368 -0.115198,0.21418 -0.115198,0.285482 0,0.08022 0.213485,0.325372 0.364602,0.418686 0.062,0.03828 0.131829,0.04094 1.078497,0.04102 0.6834,5.6e-5 1.044631,-0.0081 1.112027,-0.02505 z"
         id="path12" /><path
         style="fill:#0857ae;fill-opacity:1;stroke-width:0.0199606;stroke-linejoin:bevel"
         d="m 17.470676,23.307395 c -0.184928,-0.02596 -0.323822,-0.170336 -0.343592,-0.355074 -0.07396,-0.30819 -0.06909,-0.632747 0.0083,-0.939669 0.02385,-0.17449 0.17241,-0.298732 0.34344,-0.320912 0.165181,0.0048 0.287197,0.151255 0.444078,0.19727 0.294408,0.133783 0.624106,0.156561 0.917502,0.292913 0.156975,0.06719 0.31678,0.142645 0.444295,0.257315 0.06721,0.127133 -0.02156,0.268801 -0.05741,0.39367 -0.0798,0.21009 -0.265263,0.363991 -0.479984,0.423068 -0.181718,0.07224 -0.376508,0.06189 -0.567884,0.06051 -0.236083,-6.43e-4 -0.47355,0.0045 -0.70875,-0.0091 z"
         id="path13" /><path
         style="fill:#0857ae;fill-opacity:1;stroke-width:0.0199606;stroke-linejoin:bevel"
         d="m 21.429841,21.42051 c -0.01925,-0.002 -0.03859,-0.0066 -0.04297,-0.01016 -0.0044,-0.0036 -0.02554,-0.0089 -0.04703,-0.01177 -0.02148,-0.0029 -0.04434,-0.0073 -0.05078,-0.0097 -0.0064,-0.0025 -0.02511,-0.0057 -0.04148,-0.0071 -0.01637,-0.0014 -0.03508,-0.0079 -0.04157,-0.01442 -0.0065,-0.0065 -0.02035,-0.01181 -0.03079,-0.01181 -0.01043,0 -0.01897,-0.0035 -0.01897,-0.0078 0,-0.0043 -0.0071,-0.0078 -0.01587,-0.0078 -0.0087,0 -0.01789,-0.0053 -0.02037,-0.01172 -0.0025,-0.0064 -0.01312,-0.01172 -0.02365,-0.01172 -0.01078,0 -0.01704,-0.0034 -0.01433,-0.0078 0.0027,-0.0043 -0.0025,-0.0078 -0.01141,-0.0078 -0.01342,0 -0.01538,-0.0034 -0.01133,-0.01953 0.0027,-0.01074 0.0016,-0.01953 -0.0024,-0.01953 -0.004,0 -0.0066,-0.01261 -0.0059,-0.02801 7.69e-4,-0.01541 -0.0026,-0.02955 -0.0075,-0.03142 -0.0054,-0.0021 -0.0086,-0.02193 -0.0081,-0.05051 4.2e-4,-0.02591 -0.0023,-0.049 -0.006,-0.05131 -0.0037,-0.0023 -0.0027,-0.0092 0.0024,-0.01522 0.005,-0.0061 0.0058,-0.01102 0.0018,-0.01102 -0.0041,0 -0.0071,-0.02285 -0.0068,-0.05078 3.18e-4,-0.02793 -0.0012,-0.05078 -0.0034,-0.05078 -0.0022,-1e-6 -0.0039,-0.05273 -0.0039,-0.117181 0,-0.06445 -0.0018,-0.117181 -0.0039,-0.117185 -0.0021,-3e-6 -0.0039,-0.107232 -0.0039,-0.238287 0,-0.131055 0.0018,-0.238284 0.0039,-0.238287 0.0021,-4e-6 0.0039,-0.05274 0.0039,-0.117185 0,-0.06445 0.0018,-0.11718 0.0039,-0.117181 0.0022,-2e-6 0.0037,-0.02285 0.0034,-0.05078 -3.19e-4,-0.02793 0.0027,-0.05078 0.0068,-0.05078 0.0041,0 0.0033,-0.005 -0.0018,-0.01102 -0.005,-0.0061 -0.0061,-0.01291 -0.0024,-0.01522 0.0037,-0.0023 0.0065,-0.0254 0.006,-0.05131 -4.63e-4,-0.02859 0.0027,-0.04845 0.0081,-0.05051 0.0049,-0.0019 0.0082,-0.01601 0.0075,-0.03142 -7.68e-4,-0.01541 0.0019,-0.02801 0.0059,-0.02801 0.004,0 0.0051,-0.0088 0.0024,-0.01953 -0.0041,-0.01614 -0.0021,-0.01953 0.01133,-0.01953 0.0089,0 0.01406,-0.0035 0.01141,-0.0078 -0.0027,-0.0044 0.0035,-0.0078 0.01433,-0.0078 0.01054,0 0.02118,-0.0053 0.02365,-0.01172 0.0025,-0.0064 0.01164,-0.01172 0.02037,-0.01172 0.0087,0 0.01587,-0.0035 0.01587,-0.0078 0,-0.0043 0.0085,-0.0078 0.01897,-0.0078 0.01044,0 0.02429,-0.0053 0.03079,-0.01181 0.0065,-0.0065 0.0252,-0.01299 0.04157,-0.01442 0.01637,-0.0014 0.03503,-0.0046 0.04148,-0.0071 0.0064,-0.0025 0.0293,-0.0069 0.05078,-0.0097 0.02148,-0.0029 0.04258,-0.008 0.04687,-0.0113 0.0043,-0.0033 0.03249,-0.0084 0.06266,-0.01128 0.04102,-0.0039 0.06072,-0.0023 0.07813,0.0063 0.0128,0.0063 0.02854,0.0126 0.03497,0.01397 0.0064,0.0014 0.01581,0.0078 0.02085,0.01421 0.005,0.0064 0.01208,0.01178 0.01565,0.01186 0.0036,7.6e-5 0.06401,0.0572 0.134321,0.126953 0.07031,0.06975 0.13116,0.126815 0.135227,0.126815 0.0041,0 0.0054,0.0033 0.0029,0.0072 -0.0025,0.004 0.0026,0.0095 0.01126,0.01225 0.0087,0.0027 0.01574,0.0077 0.01574,0.01101 0,0.0079 0.188211,0.196062 0.196062,0.196062 0.0033,0 0.0083,0.0071 0.01101,0.01574 0.0027,0.0087 0.0083,0.01372 0.01225,0.01126 0.004,-0.0025 0.0072,-0.0012 0.0072,0.0029 0,0.0041 0.05707,0.06492 0.126815,0.135227 0.06975,0.07031 0.126877,0.130753 0.126953,0.134322 7.6e-5,0.0036 0.0054,0.01061 0.01186,0.01565 0.0064,0.005 0.01287,0.01442 0.01428,0.02085 0.0014,0.0064 0.008,0.02314 0.01459,0.03714 0.01326,0.02806 0.01104,0.08362 -0.01007,0.251893 -0.05555,0.44286 -0.16194,0.579337 -0.504955,0.647772 -0.162132,0.03235 -0.38153,0.05189 -0.474634,0.04227 z"
         id="path14" /><path
         style="fill:#0857ae;fill-opacity:1;stroke-width:0.00998032;stroke-linejoin:bevel"
         d="m 15.476563,24.322266 c -0.119272,-0.02705 -0.251213,-0.07161 -0.319455,-0.180365 -0.05813,-0.113334 -0.05929,-0.244129 -0.08139,-0.367049 -0.02025,-0.174794 -0.02712,-0.352012 -9.82e-4,-0.526557 0.01459,-0.130005 0.03012,-0.263599 0.08068,-0.384964 0.05935,-0.100963 0.179139,-0.134647 0.280635,-0.176405 0.111244,-0.02761 0.205732,0.05993 0.277896,0.132461 0.0904,0.09871 0.190771,0.18737 0.28264,0.284369 0.04847,0.04698 0.100501,0.09185 0.136999,0.14935 0.08817,0.05899 0.162929,0.145009 0.191271,0.248831 -0.01036,0.147536 -0.05996,0.289855 -0.119422,0.424155 -0.09438,0.185337 -0.282709,0.307742 -0.48218,0.35299 -0.08009,0.02329 -0.162137,0.05007 -0.246695,0.04318 z"
         id="path15" /><path
         style="fill:#652c77;fill-opacity:1;stroke-width:0.00998032;stroke-linejoin:bevel"
         d="m 16.492187,23.408203 c -0.261966,-0.263784 -0.520873,-0.531911 -0.788772,-0.788878 -0.142566,-0.07767 -0.112568,-0.239282 -0.08827,-0.370605 0.02337,-0.215318 0.09757,-0.464884 0.317016,-0.554551 0.191596,-0.07771 0.403642,-0.09952 0.60835,-0.10485 0.08075,0.02602 0.254525,0.05609 0.315914,0.197129 0.08289,0.200521 0.08329,0.423105 0.09652,0.636972 3.1e-4,0.251594 -0.006,0.508967 -0.07709,0.75179 -0.05551,0.163008 -0.243049,0.243975 -0.383651,0.232975 z"
         id="path16" /><path
         style="fill:#0857ae;fill-opacity:1;stroke-width:0.00998032;stroke-linejoin:bevel"
         d="m 10.484375,12.337891 c -0.107664,-0.04384 -0.169664,-0.14914 -0.258126,-0.219308 -0.167253,-0.173938 -0.3435711,-0.340675 -0.5101178,-0.516008 -0.098901,-0.101267 -0.021494,-0.245087 4.603e-4,-0.362092 0.05007,-0.199613 0.1759869,-0.388163 0.3711945,-0.469526 0.130212,-0.05807 0.271343,-0.09084 0.412406,-0.10833 0.100594,0.02091 0.207229,0.04848 0.291579,0.106377 0.07167,0.06952 0.09287,0.177157 0.114707,0.273146 0.02595,0.152189 0.03943,0.306097 0.04695,0.460657 -0.0093,0.167563 -0.02096,0.335778 -0.05634,0.499553 -0.02202,0.09319 -0.04714,0.207028 -0.1381,0.254139 -0.07871,0.03773 -0.179271,0.08619 -0.274614,0.08139 z"
         id="path17" /><path
         style="fill:#0857ae;fill-opacity:1;stroke-width:0.00998032;stroke-linejoin:bevel"
         d="m 5.4921875,15.955078 c 0,-0.0021 -0.00703,-0.0039 -0.015625,-0.0039 -0.00859,0 -0.015625,-0.0018 -0.015625,-0.0039 0,-0.0021 -0.00352,-0.0039 -0.00781,-0.0039 -0.0043,0 -0.00781,-0.0018 -0.00781,-0.0039 0,-0.0021 -0.00527,-0.0039 -0.011719,-0.0039 -0.00645,0 -0.011719,-0.0018 -0.011719,-0.0039 0,-0.0021 -0.00527,-0.0039 -0.011719,-0.0039 -0.00645,0 -0.011719,-0.0018 -0.011719,-0.0039 0,-0.0021 -0.00527,-0.0039 -0.011719,-0.0039 -0.00645,0 -0.011719,-0.0014 -0.011719,-0.0031 0,-0.0017 -0.00654,-0.0033 -0.014528,-0.0035 -0.00799,-2.26e-4 -0.015168,-0.0023 -0.01595,-0.0047 -7.825e-4,-0.0023 -0.00655,-0.0043 -0.012816,-0.0043 -0.00627,0 -0.011393,-0.0018 -0.011393,-0.0039 0,-0.0021 -0.00527,-0.0039 -0.011719,-0.0039 -0.00645,0 -0.011719,-0.0018 -0.011719,-0.0039 0,-0.0021 -0.00352,-0.0039 -0.00781,-0.0039 -0.0043,0 -0.00781,-0.0018 -0.00781,-0.0039 0,-0.0021 -0.00352,-0.0039 -0.00781,-0.0039 -0.0043,0 -0.00781,-0.0014 -0.00781,-0.0031 0,-0.0017 -0.00834,-0.0034 -0.018541,-0.0039 -0.010197,-4.44e-4 -0.019133,-0.0026 -0.019857,-0.0048 -7.239e-4,-0.0022 -0.00469,-0.0039 -0.0088,-0.0039 -0.00412,0 -0.00749,-0.0018 -0.00749,-0.0039 0,-0.0021 -0.00352,-0.0039 -0.00781,-0.0039 -0.0043,0 -0.00781,-0.0018 -0.00781,-0.0039 0,-0.0021 -0.00352,-0.0039 -0.00781,-0.0039 -0.0043,0 -0.00781,-0.0018 -0.00781,-0.0039 0,-0.0021 -0.00527,-0.0039 -0.011719,-0.0039 -0.00645,0 -0.011719,-0.0018 -0.011719,-0.0039 0,-0.0021 -0.00527,-0.0039 -0.011719,-0.0039 -0.00645,0 -0.011719,-0.0018 -0.011719,-0.0039 0,-0.0021 -0.00352,-0.0039 -0.00781,-0.0039 -0.0043,0 -0.00781,-0.0018 -0.00781,-0.0039 0,-0.0021 -0.00489,-0.0039 -0.010856,-0.0039 -0.00638,0 -0.013181,-0.0032 -0.016487,-0.0078 -0.00331,-0.0046 -0.010112,-0.0078 -0.016487,-0.0078 -0.00597,0 -0.010856,-0.0018 -0.010856,-0.0039 0,-0.0021 -0.00352,-0.0039 -0.00781,-0.0039 -0.0043,0 -0.00781,-0.0018 -0.00781,-0.0039 0,-0.0021 -0.00352,-0.0039 -0.00781,-0.0039 -0.0043,0 -0.00781,-0.0018 -0.00781,-0.0039 0,-0.0021 -0.00527,-0.0039 -0.011719,-0.0039 -0.00911,0 -0.011719,-0.0017 -0.011719,-0.0078 0,-0.0061 -0.0026,-0.0078 -0.011719,-0.0078 -0.00645,0 -0.011719,-0.0018 -0.011719,-0.0039 0,-0.0021 -0.00527,-0.0039 -0.011719,-0.0039 -0.00645,0 -0.011719,-0.0018 -0.011719,-0.0039 0,-0.0021 -0.00281,-0.0039 -0.00625,-0.0039 -0.00343,0 -0.011171,-0.0053 -0.017192,-0.01172 -0.00602,-0.0064 -0.013757,-0.01172 -0.017192,-0.01172 -0.00343,0 -0.00625,-0.0018 -0.00625,-0.0039 0,-0.0021 -0.00489,-0.0039 -0.010856,-0.0039 -0.00638,0 -0.013181,-0.0032 -0.016487,-0.0078 -0.0031,-0.0043 -0.00805,-0.0078 -0.011014,-0.0078 -0.00296,0 -0.010309,-0.0053 -0.01633,-0.01172 -0.00673,-0.0072 -0.014856,-0.01172 -0.021098,-0.01172 -0.00558,0 -0.010152,-0.0018 -0.010152,-0.0039 0,-0.0021 -0.00313,-0.0039 -0.00695,-0.0039 -0.00382,0 -0.00948,-0.0035 -0.012581,-0.0078 -0.0031,-0.0043 -0.00799,-0.0078 -0.010881,-0.0078 -0.00289,0 -0.013812,-0.0088 -0.024275,-0.01953 -0.010463,-0.01074 -0.020942,-0.01953 -0.023287,-0.01953 -0.0076,0 -0.039213,-0.03471 -0.039213,-0.04304 0,-0.0085 -0.016151,-0.02727 -0.023523,-0.02727 -0.00239,0 -0.00335,-0.0031 -0.00214,-0.007 0.00138,-0.0043 -7.288e-4,-0.0091 -0.0056,-0.01258 -0.00665,-0.0048 -0.0078,-0.01012 -0.0078,-0.03601 0,-0.01765 0.00164,-0.03039 0.00391,-0.03039 0.00215,0 0.00391,-0.0088 0.00391,-0.01953 0,-0.01074 0.00176,-0.01953 0.00391,-0.01953 0.00215,0 0.00391,-0.0088 0.00391,-0.01953 0,-0.01074 0.00176,-0.01953 0.00391,-0.01953 0.00215,0 0.00391,-0.0088 0.00391,-0.01953 0,-0.01074 0.00176,-0.01953 0.00391,-0.01953 0.00215,0 0.00391,-0.007 0.00391,-0.01563 0,-0.0086 0.00176,-0.01563 0.00391,-0.01563 0.00215,0 0.00391,-0.007 0.00391,-0.01563 0,-0.0086 0.00176,-0.01563 0.00391,-0.01563 0.00215,0 0.00391,-0.0053 0.00391,-0.01172 0,-0.0064 0.00176,-0.01172 0.00391,-0.01172 0.00215,0 0.00391,-0.007 0.00391,-0.01563 0,-0.0086 0.00176,-0.01563 0.00391,-0.01563 0.00215,0 0.00391,-0.0053 0.00391,-0.01172 0,-0.0064 0.00176,-0.01172 0.00391,-0.01172 0.00215,0 0.00391,-0.0053 0.00391,-0.01172 0,-0.0064 0.00176,-0.01172 0.00391,-0.01172 0.00215,0 0.00391,-0.0035 0.00391,-0.0078 0,-0.0043 0.00176,-0.0078 0.00391,-0.0078 0.00215,0 0.00391,-0.0053 0.00391,-0.01172 0,-0.0064 0.00176,-0.01172 0.00391,-0.01172 0.00215,0 0.00391,-0.0035 0.00391,-0.0078 0,-0.0043 0.00176,-0.0078 0.00391,-0.0078 0.00215,0 0.00391,-0.0053 0.00391,-0.01172 0,-0.0064 0.00176,-0.01172 0.00391,-0.01172 0.00215,0 0.00391,-0.0035 0.00391,-0.0078 0,-0.0043 0.00176,-0.0078 0.00391,-0.0078 0.00215,0 0.00391,-0.0035 0.00391,-0.0078 0,-0.0043 0.00176,-0.0078 0.00391,-0.0078 0.00215,0 0.00391,-0.0031 0.00391,-0.0069 0,-0.0038 0.00352,-0.0095 0.00781,-0.01258 0.0043,-0.0031 0.00781,-0.0088 0.00781,-0.01258 0,-0.0038 0.00176,-0.0069 0.00391,-0.0069 0.00215,0 0.00391,-0.0031 0.00391,-0.0069 0,-0.0038 0.00352,-0.0095 0.00781,-0.01258 0.0043,-0.0031 0.00781,-0.0084 0.00781,-0.01172 0,-0.0033 0.00352,-0.0086 0.00781,-0.01172 0.0043,-0.0031 0.00781,-0.008 0.00781,-0.01093 0,-0.0029 0.00703,-0.01206 0.015625,-0.02032 0.00859,-0.0083 0.015625,-0.01694 0.015625,-0.0193 0,-0.0056 0.049335,-0.05492 0.054921,-0.05492 0.00236,0 0.011041,-0.007 0.019297,-0.01563 0.00826,-0.0086 0.017399,-0.01563 0.020316,-0.01563 0.00292,0 0.00784,-0.0035 0.010934,-0.0078 0.0031,-0.0043 0.00837,-0.0078 0.011719,-0.0078 0.00335,0 0.00862,-0.0035 0.011719,-0.0078 0.0031,-0.0043 0.00876,-0.0078 0.012581,-0.0078 0.00382,0 0.00695,-0.0018 0.00695,-0.0039 0,-0.0021 0.00313,-0.0039 0.00695,-0.0039 0.00382,0 0.00948,-0.0035 0.012581,-0.0078 0.0031,-0.0043 0.00876,-0.0078 0.012581,-0.0078 0.00382,0 0.00695,-0.0018 0.00695,-0.0039 0,-0.0021 0.00352,-0.0039 0.00781,-0.0039 0.0043,0 0.00781,-0.0018 0.00781,-0.0039 0,-0.0021 0.00352,-0.0039 0.00781,-0.0039 0.0043,0 0.00781,-0.0018 0.00781,-0.0039 0,-0.0021 0.00527,-0.0039 0.011719,-0.0039 0.00645,0 0.011719,-0.0018 0.011719,-0.0039 0,-0.0021 0.00352,-0.0039 0.00781,-0.0039 0.0043,0 0.00781,-0.0018 0.00781,-0.0039 0,-0.0021 0.00527,-0.0039 0.011719,-0.0039 0.00645,0 0.011719,-0.0018 0.011719,-0.0039 0,-0.0021 0.00352,-0.0039 0.00781,-0.0039 0.0043,0 0.00781,-0.0018 0.00781,-0.0039 0,-0.0021 0.00527,-0.0039 0.011719,-0.0039 0.00645,0 0.011719,-0.0018 0.011719,-0.0039 0,-0.0021 0.00527,-0.0039 0.011719,-0.0039 0.00645,0 0.011719,-0.0018 0.011719,-0.0039 0,-0.0021 0.00703,-0.0039 0.015625,-0.0039 0.00859,0 0.015625,-0.0018 0.015625,-0.0039 0,-0.0021 0.00527,-0.0039 0.011719,-0.0039 0.00645,0 0.011719,-0.0018 0.011719,-0.0039 0,-0.0021 0.00703,-0.0039 0.015625,-0.0039 0.00859,0 0.015625,-0.0018 0.015625,-0.0039 0,-0.0021 0.00703,-0.0039 0.015625,-0.0039 0.00859,0 0.015625,-0.0018 0.015625,-0.0039 0,-0.0021 0.00879,-0.0039 0.019531,-0.0039 0.010742,0 0.019531,-0.0018 0.019531,-0.0039 0,-0.0021 0.00879,-0.0039 0.019531,-0.0039 0.010742,0 0.019531,-0.0018 0.019531,-0.0039 0,-0.0021 0.00879,-0.0039 0.019531,-0.0039 0.010742,0 0.019531,-0.0018 0.019531,-0.0039 0,-0.0021 0.00984,-0.0039 0.02187,-0.0039 0.019263,0 0.023175,-0.0014 0.032817,-0.01172 0.00602,-0.0064 0.013052,-0.01172 0.015625,-0.01172 0.00257,0 0.0096,-0.0053 0.015625,-0.01172 0.00602,-0.0064 0.012907,-0.01172 0.015302,-0.01172 0.00568,0 0.062823,-0.05714 0.062823,-0.06282 0,-0.0024 0.00527,-0.0093 0.011719,-0.0153 0.00645,-0.006 0.011719,-0.01305 0.011719,-0.01563 0,-0.0026 0.00527,-0.0096 0.011719,-0.01563 0.010322,-0.0096 0.011719,-0.01355 0.011719,-0.03282 0,-0.01203 0.00176,-0.02187 0.00391,-0.02187 0.00215,0 0.00391,-0.0088 0.00391,-0.01953 0,-0.01074 0.00176,-0.01953 0.00391,-0.01953 0.00215,0 0.00391,-0.0088 0.00391,-0.01953 0,-0.01074 0.00176,-0.01953 0.00391,-0.01953 0.00215,0 0.00391,-0.0088 0.00391,-0.01953 0,-0.01074 0.00176,-0.01953 0.00391,-0.01953 0.00215,0 0.00391,-0.007 0.00391,-0.01563 0,-0.0086 0.00176,-0.01563 0.00391,-0.01563 0.00215,0 0.00391,-0.007 0.00391,-0.01563 0,-0.0086 0.00176,-0.01563 0.00391,-0.01563 0.00215,0 0.00391,-0.0053 0.00391,-0.01172 0,-0.0064 0.00176,-0.01172 0.00391,-0.01172 0.00215,0 0.00391,-0.007 0.00391,-0.01563 0,-0.0086 0.00176,-0.01563 0.00391,-0.01563 0.00215,0 0.00391,-0.0053 0.00391,-0.01172 0,-0.0064 0.00176,-0.01172 0.00391,-0.01172 0.00215,0 0.00391,-0.0053 0.00391,-0.01172 0,-0.0064 0.00176,-0.01172 0.00391,-0.01172 0.00215,0 0.00391,-0.0035 0.00391,-0.0078 0,-0.0043 0.00176,-0.0078 0.00391,-0.0078 0.00215,0 0.00391,-0.0053 0.00391,-0.01172 0,-0.0064 0.00176,-0.01172 0.00391,-0.01172 0.00215,0 0.00391,-0.0035 0.00391,-0.0078 0,-0.0043 0.00176,-0.0078 0.00391,-0.0078 0.00215,0 0.00391,-0.0053 0.00391,-0.01172 0,-0.0064 0.00176,-0.01172 0.00391,-0.01172 0.00215,0 0.00391,-0.0035 0.00391,-0.0078 0,-0.0043 0.00176,-0.0078 0.00391,-0.0078 0.00215,0 0.00391,-0.0035 0.00391,-0.0078 0,-0.0043 0.00176,-0.0078 0.00391,-0.0078 0.00215,0 0.00391,-0.0031 0.00391,-0.0069 0,-0.0038 0.00352,-0.0095 0.00781,-0.01258 0.0043,-0.0031 0.00781,-0.0088 0.00781,-0.01258 0,-0.0038 0.00176,-0.0069 0.00391,-0.0069 0.00215,0 0.00391,-0.0031 0.00391,-0.0069 0,-0.0038 0.00352,-0.0095 0.00781,-0.01258 0.0043,-0.0031 0.00781,-0.0084 0.00781,-0.01172 0,-0.0033 0.00352,-0.0086 0.00781,-0.01172 0.0043,-0.0031 0.00781,-0.008 0.00781,-0.01093 0,-0.0029 0.00703,-0.01206 0.015625,-0.02032 0.00859,-0.0083 0.015625,-0.01694 0.015625,-0.0193 0,-0.0056 0.049335,-0.05492 0.054921,-0.05492 0.00236,0 0.011041,-0.007 0.019297,-0.01563 0.00826,-0.0086 0.017399,-0.01563 0.020316,-0.01563 0.00292,0 0.00784,-0.0035 0.010934,-0.0078 0.0031,-0.0043 0.00837,-0.0078 0.011719,-0.0078 0.00335,0 0.00862,-0.0035 0.011719,-0.0078 0.0031,-0.0043 0.00876,-0.0078 0.012581,-0.0078 0.00382,0 0.00695,-0.0018 0.00695,-0.0039 0,-0.0021 0.00313,-0.0039 0.00695,-0.0039 0.00382,0 0.00948,-0.0035 0.012581,-0.0078 0.0031,-0.0043 0.00876,-0.0078 0.012581,-0.0078 0.00382,0 0.00695,-0.0018 0.00695,-0.0039 0,-0.0021 0.00352,-0.0039 0.00781,-0.0039 0.0043,0 0.00781,-0.0018 0.00781,-0.0039 0,-0.0021 0.00352,-0.0039 0.00781,-0.0039 0.0043,0 0.00781,-0.0018 0.00781,-0.0039 0,-0.0021 0.00527,-0.0039 0.011719,-0.0039 0.00645,0 0.011719,-0.0018 0.011719,-0.0039 0,-0.0021 0.00352,-0.0039 0.00781,-0.0039 0.0043,0 0.00781,-0.0018 0.00781,-0.0039 0,-0.0021 0.00527,-0.0039 0.011719,-0.0039 0.00645,0 0.011719,-0.0018 0.011719,-0.0039 0,-0.0021 0.00352,-0.0039 0.00781,-0.0039 0.0043,0 0.00781,-0.0018 0.00781,-0.0039 0,-0.0021 0.00527,-0.0039 0.011719,-0.0039 0.00645,0 0.011719,-0.0018 0.011719,-0.0039 0,-0.0021 0.00527,-0.0039 0.011719,-0.0039 0.00645,0 0.011719,-0.0018 0.011719,-0.0039 0,-0.0021 0.00703,-0.0039 0.015625,-0.0039 0.00859,0 0.015625,-0.0018 0.015625,-0.0039 0,-0.0021 0.00527,-0.0039 0.011719,-0.0039 0.00645,0 0.011719,-0.0018 0.011719,-0.0039 0,-0.0021 0.00703,-0.0039 0.015625,-0.0039 0.00859,0 0.015625,-0.0018 0.015625,-0.0039 0,-0.0021 0.00703,-0.0039 0.015625,-0.0039 0.00859,0 0.015625,-0.0018 0.015625,-0.0039 0,-0.0021 0.00879,-0.0039 0.019531,-0.0039 0.010742,0 0.019531,-0.0018 0.019531,-0.0039 0,-0.0021 0.00879,-0.0039 0.019531,-0.0039 0.010742,0 0.019531,-0.0018 0.019531,-0.0039 0,-0.0021 0.00879,-0.0039 0.019531,-0.0039 0.010742,0 0.019531,-0.0018 0.019531,-0.0039 0,-0.0021 0.00984,-0.0039 0.02187,-0.0039 0.019263,0 0.023175,-0.0014 0.032817,-0.01172 0.00602,-0.0064 0.013052,-0.01172 0.015625,-0.01172 0.00257,0 0.0096,-0.0053 0.015625,-0.01172 0.00602,-0.0064 0.012907,-0.01172 0.015302,-0.01172 0.00568,0 0.062823,-0.05714 0.062823,-0.06282 0,-0.0024 0.00527,-0.0093 0.011719,-0.0153 0.00645,-0.006 0.011719,-0.01305 0.011719,-0.01563 0,-0.0026 0.00527,-0.0096 0.011719,-0.01563 0.010322,-0.0096 0.011719,-0.01355 0.011719,-0.03282 0,-0.01203 0.00176,-0.02187 0.00391,-0.02187 0.00215,0 0.00391,-0.0088 0.00391,-0.01953 0,-0.01074 0.00176,-0.01953 0.00391,-0.01953 0.00215,0 0.00391,-0.0088 0.00391,-0.01953 0,-0.01074 0.00176,-0.01953 0.00391,-0.01953 0.00215,0 0.00391,-0.0088 0.00391,-0.01953 0,-0.01074 0.00176,-0.01953 0.00391,-0.01953 0.00215,0 0.00391,-0.007 0.00391,-0.01563 0,-0.0086 0.00176,-0.01563 0.00391,-0.01563 0.00215,0 0.00391,-0.007 0.00391,-0.01563 0,-0.0086 0.00176,-0.01563 0.00391,-0.01563 0.00215,0 0.00391,-0.0053 0.00391,-0.01172 0,-0.0064 0.00176,-0.01172 0.00391,-0.01172 0.00215,0 0.00391,-0.007 0.00391,-0.01563 0,-0.0086 0.00176,-0.01563 0.00391,-0.01563 0.00215,0 0.00391,-0.0053 0.00391,-0.01172 0,-0.0064 0.00176,-0.01172 0.00391,-0.01172 0.00215,0 0.00391,-0.0053 0.00391,-0.01172 0,-0.0064 0.00176,-0.01172 0.00391,-0.01172 0.00215,0 0.00391,-0.0035 0.00391,-0.0078 0,-0.0043 0.00176,-0.0078 0.00391,-0.0078 0.00215,0 0.00391,-0.0053 0.00391,-0.01172 0,-0.0064 0.00176,-0.01172 0.00391,-0.01172 0.00215,0 0.00391,-0.0035 0.00391,-0.0078 0,-0.0043 0.00176,-0.0078 0.00391,-0.0078 0.00215,0 0.00391,-0.0053 0.00391,-0.01172 0,-0.0064 0.00176,-0.01172 0.00391,-0.01172 0.00215,0 0.00391,-0.0035 0.00391,-0.0078 0,-0.0043 0.00176,-0.0078 0.00391,-0.0078 0.00215,0 0.00391,-0.0035 0.00391,-0.0078 0,-0.0043 0.00176,-0.0078 0.00391,-0.0078 0.00215,0 0.00391,-0.0031 0.00391,-0.0069 0,-0.0038 0.00352,-0.0095 0.00781,-0.01258 0.0043,-0.0031 0.00781,-0.0088 0.00781,-0.01258 0,-0.0038 0.00176,-0.0069 0.00391,-0.0069 0.00215,0 0.00391,-0.0031 0.00391,-0.0069 0,-0.0038 0.00352,-0.0095 0.00781,-0.01258 0.0043,-0.0031 0.00781,-0.0084 0.00781,-0.01172 0,-0.0033 0.00352,-0.0086 0.00781,-0.01172 0.0043,-0.0031 0.00781,-0.008 0.00781,-0.01093 0,-0.0029 0.00703,-0.01206 0.015625,-0.02032 0.00859,-0.0083 0.015625,-0.01694 0.015625,-0.0193 0,-0.0056 0.049335,-0.05492 0.054921,-0.05492 0.00236,0 0.011041,-0.007 0.019297,-0.01563 0.00826,-0.0086 0.017399,-0.01563 0.020316,-0.01563 0.00292,0 0.00784,-0.0035 0.010934,-0.0078 0.0031,-0.0043 0.00837,-0.0078 0.011719,-0.0078 0.00335,0 0.00862,-0.0035 0.011719,-0.0078 0.0031,-0.0043 0.00876,-0.0078 0.012581,-0.0078 0.00382,0 0.00695,-0.0018 0.00695,-0.0039 0,-0.0021 0.00313,-0.0039 0.00695,-0.0039 0.00382,0 0.00948,-0.0035 0.012581,-0.0078 0.0031,-0.0043 0.00876,-0.0078 0.012581,-0.0078 0.00382,0 0.00695,-0.0018 0.00695,-0.0039 0,-0.0021 0.00352,-0.0039 0.00781,-0.0039 0.0043,0 0.00781,-0.0018 0.00781,-0.0039 0,-0.0021 0.00352,-0.0039 0.00781,-0.0039 0.0043,0 0.00781,-0.0018 0.00781,-0.0039 0,-0.0021 0.00527,-0.0039 0.011719,-0.0039 0.00645,0 0.011719,-0.0018 0.011719,-0.0039 0,-0.0021 0.00352,-0.0039 0.00781,-0.0039 0.0043,0 0.00781,-0.0018 0.00781,-0.0039 0,-0.0021 0.00527,-0.0039 0.011719,-0.0039 0.00645,0 0.011719,-0.0018 0.011719,-0.0039 0,-0.0021 0.00352,-0.0039 0.00781,-0.0039 0.0043,0 0.00781,-0.0018 0.00781,-0.0039 0,-0.0021 0.00527,-0.0039 0.011719,-0.0039 0.00645,0 0.011719,-0.0018 0.011719,-0.0039 0,-0.0021 0.00527,-0.0039 0.011719,-0.0039 0.00645,0 0.011719,-0.0018 0.011719,-0.0039 0,-0.0021 0.00703,-0.0039 0.015625,-0.0039 0.00859,0 0.015625,-0.0018 0.015625,-0.0039 0,-0.0021 0.00527,-0.0039 0.011719,-0.0039 0.00645,0 0.011719,-0.0018 0.011719,-0.0039 0,-0.0021 0.00703,-0.0039 0.015625,-0.0039 0.00859,0 0.015625,-0.0018 0.015625,-0.0039 0,-0.0021 0.00703,-0.0039 0.015625,-0.0039 0.00859,0 0.015625,-0.0018 0.015625,-0.0039 0,-0.0021 0.00879,-0.0039 0.019531,-0.0039 0.010742,0 0.019531,-0.0018 0.019531,-0.0039 0,-0.0021 0.00879,-0.0039 0.019531,-0.0039 0.010742,0 0.019531,-0.0018 0.019531,-0.0039 0,-0.0021 0.00879,-0.0039 0.019531,-0.0039 0.010742,0 0.019531,-0.0018 0.019531,-0.0039 0,-0.0021 0.00984,-0.0039 0.02187,-0.0039 0.019263,0 0.023175,-0.0014 0.032817,-0.01172 0.00602,-0.0064 0.013052,-0.01172 0.015625,-0.01172 0.00257,0 0.0096,-0.0053 0.015625,-0.01172 0.00602,-0.0064 0.012907,-0.01172 0.015302,-0.01172 0.00568,0 0.062823,-0.05714 0.062823,-0.06282 0,-0.0024 0.00527,-0.0093 0.011719,-0.0153 0.00645,-0.006 0.011719,-0.01305 0.011719,-0.01563 0,-0.0026 0.00527,-0.0096 0.011719,-0.01563 0.010322,-0.0096 0.011719,-0.01355 0.011719,-0.03282 0,-0.01203 0.00176,-0.02187 0.00391,-0.02187 0.00215,0 0.00391,-0.0088 0.00391,-0.01953 0,-0.01074 0.00176,-0.01953 0.00391,-0.01953 0.00215,0 0.00391,-0.0088 0.00391,-0.01953 0,-0.01074 0.00176,-0.01953 0.00391,-0.01953 0.00215,0 0.00391,-0.0088 0.00391,-0.01953 0,-0.01074 0.00176,-0.01953 0.00391,-0.01953 0.00215,0 0.00391,-0.007 0.00391,-0.01563 0,-0.0086 0.00176,-0.01563 0.00391,-0.01563 0.00215,0 0.00391,-0.007 0.00391,-0.01563 0,-0.0086 0.00176,-0.01563 0.00391,-0.01563 0.00215,0 0.00391,-0.0053 0.00391,-0.01172 0,-0.0064 0.00176,-0.01172 0.00391,-0.01172 0.00215,0 0.00391,-0.007 0.00391,-0.01563 0,-0.0086 0.00176,-0.01563 0.00391,-0.01563 0.00215,0 0.00391,-0.0053 0.00391,-0.01172 0,-0.0064 0.00176,-0.01172 0.00391,-0.01172 0.00215,0 0.00391,-0.0053 0.00391,-0.01172 0,-0.0064 0.00176,-0.01172 0.00391,-0.01172 0.00215,0 0.00391,-0.0035 0.00391,-0.0078 0,-0.0043 0.00176,-0.0078 0.00391,-0.0078 0.00215,0 0.00391,-0.0053 0.00391,-0.01172 0,-0.0064 0.00176,-0.01172 0.00391,-0.01172 0.00215,0 0.00391,-0.0035 0.00391,-0.0078 0,-0.0043 0.00176,-0.0078 0.00391,-0.0078 0.00215,0 0.00391,-0.0053 0.00391,-0.01172 0,-0.0064 0.00176,-0.01172 0.00391,-0.01172 0.00215,0 0.00391,-0.0035 0.00391,-0.0078 0,-0.0043 0.00176,-0.0078 0.00391,-0.0078 0.00215,0 0.00391,-0.0035 0.00391,-0.0078 0,-0.0043 0.00176,-0.0078 0.00391,-0.0078 0.00215,0 0.00391,-0.0031 0.00391,-0.0069 0,-0.0038 0.00352,-0.0095 0.00781,-0.01258 0.0043,-0.0031 0.00781,-0.0088 0.00781,-0.01258 0,-0.0038 0.00176,-0.0069 0.00391,-0.0069 0.00215,0 0.00391,-0.0031 0.00391,-0.0069 0,-0.0038 0.00352,-0.0095 0.00781,-0.01258 0.0043,-0.0031 0.00781,-0.0084 0.00781,-0.01172 0,-0.0033 0.00352,-0.0086 0.00781,-0.01172 0.0043,-0.0031 0.00781,-0.008 0.00781,-0.01093 0,-0.0029 0.00703,-0.01206 0.015625,-0.02032 0.00859,-0.0083 0.015625,-0.01694 0.015625,-0.0193 0,-0.0056 0.049335,-0.05492 0.054921,-0.05492 0.00236,0 0.011041,-0.007 0.019297,-0.01563 0.00826,-0.0086 0.017399,-0.01563 0.020316,-0.01563 0.00292,0 0.00784,-0.0035 0.010934,-0.0078 0.0031,-0.0043 0.00837,-0.0078 0.011719,-0.0078 0.00335,0 0.00862,-0.0035 0.011719,-0.0078 0.0031,-0.0043 0.00876,-0.0078 0.012581,-0.0078 0.00382,0 0.00695,-0.0018 0.00695,-0.0039 0,-0.0021 0.00313,-0.0039 0.00695,-0.0039 0.00382,0 0.00948,-0.0035 0.012581,-0.0078 0.0031,-0.0043 0.00876,-0.0078 0.012581,-0.0078 0.00382,0 0.00695,-0.0018 0.00695,-0.0039 0,-0.0021 0.00352,-0.0039 0.00781,-0.0039 0.0043,0 0.00781,-0.0018 0.00781,-0.0039 0,-0.0021 0.00352,-0.0039 0.00781,-0.0039 0.0043,0 0.00781,-0.0018 0.00781,-0.0039 0,-0.0021 0.00527,-0.0039 0.011719,-0.0039 0.00645,0 0.011719,-0.0018 0.011719,-0.0039 0,-0.0021 0.00352,-0.0039 0.00781,-0.0039 0.0043,0 0.00781,-0.0018 0.00781,-0.0039 0,-0.0021 0.00527,-0.0039 0.011719,-0.0039 0.00645,0 0.011719,-0.0018 0.011719,-0.0039 0,-0.0021 0.00352,-0.0039 0.00781,-0.0039 0.0043,0 0.00781,-0.0018 0.00781,-0.0039 0,-0.0021 0.00527,-0.0039 0.011719,-0.0039 0.00645,0 0.011719,-0.0018 0.011719,-0.0039 0,-0.0021 0.00527,-0.0039 0.011719,-0.0039 0.00645,0 0.011719,-0.0018 0.011719,-0.0039 0,-0.0021 0.00703,-0.0039 0.015625,-0.0039 0.00859,0 0.015625,-0.0018 0.015625,-0.0039 0,-0.0021 0.00527,-0.0039 0.011719,-0.0039 0.00645,0 0.011719,-0.0018 0.011719,-0.0039 0,-0.0021 0.00703,-0.0039 0.015625,-0.0039 0.00859,0 0.015625,-0.0018 0.015625,-0.0039 0,-0.0021 0.00703,-0.0039 0.015625,-0.0039 0.00859,0 0.015625,-0.0018 0.015625,-0.0039 0,-0.0021 0.00879,-0.0039 0.019531,-0.0039 0.010742,0 0.019531,-0.0018 0.019531,-0.0039 0,-0.0021 0.00879,-0.0039 0.019531,-0.0039 0.010742,0 0.019531,-0.0018 0.019531,-0.0039 0,-0.0021 0.00879,-0.0039 0.019531,-0.0039 0.010742,0 0.019531,-0.0018 0.019531,-0.0039 0,-0.0059 0.045743,-0.0049 0.048503,9.77e-4 0.00182,0.0039 0.00273,0.0039 0.00456,0 0.0027,-0.0058 0.025065,-0.0066 0.025065,-9.77e-4 0,0.0021 0.00703,0.0039 0.015625,0.0039 0.00859,0 0.015625,0.0018 0.015625,0.0039 0,0.0021 0.00879,0.0039 0.019531,0.0039 0.010742,0 0.019531,0.0018 0.019531,0.0039 0,0.0021 -0.00176,0.0039 -0.00391,0.0039 -0.00215,0 -0.00391,0.0018 -0.00391,0.0039 0,0.0021 0.00703,0.0039 0.015625,0.0039 0.00859,0 0.015625,0.0018 0.015625,0.0039 0,0.0022 0.011719,0.0039 0.027344,0.0039 0.024739,0 0.027344,7.44e-4 0.027344,0.0078 0,0.0061 0.0026,0.0078 0.011719,0.0078 0.00645,0 0.011719,0.0018 0.011719,0.0039 0,0.0021 0.00352,0.0039 0.00781,0.0039 0.00521,0 0.00781,0.0026 0.00781,0.0078 0,0.0052 0.0026,0.0078 0.00781,0.0078 0.0043,0 0.00781,0.002 0.00781,0.0044 0,0.0025 0.00401,0.0036 0.00941,0.0026 0.00674,-0.0013 0.00884,-3.09e-4 0.00739,0.0035 -0.00142,0.0037 0.00157,0.0053 0.010122,0.0053 0.00668,0 0.012137,0.0018 0.012137,0.0039 0,0.0021 0.00352,0.0039 0.00781,0.0039 0.0045,0 0.00781,0.0026 0.00781,0.0061 0,0.0079 0.0094,0.0173 0.017299,0.0173 0.00353,0 0.00614,0.0033 0.00614,0.0078 0,0.0061 0.0026,0.0078 0.011719,0.0078 0.00911,0 0.011719,0.0017 0.011719,0.0078 0,0.0043 0.00176,0.0078 0.00391,0.0078 0.00215,0 0.00391,0.0018 0.00391,0.0039 0,0.0021 -0.00352,0.0039 -0.00781,0.0039 -0.0043,0 -0.00781,0.0018 -0.00781,0.0039 0,0.0021 0.00703,0.0039 0.015625,0.0039 0.00859,0 0.015625,0.0018 0.015625,0.0039 0,0.0021 -0.00176,0.0039 -0.00391,0.0039 -0.00691,0 -0.00416,0.01372 0.00391,0.01953 0.00805,0.0058 0.011127,0.02734 0.00391,0.02734 -0.00215,0 -0.00391,0.0018 -0.00391,0.0039 0,0.0021 0.00352,0.0039 0.00781,0.0039 0.00603,0 0.00781,0.0026 0.00781,0.01139 0,0.0063 0.0022,0.01242 0.00488,0.01367 0.00391,0.0018 0.00391,0.0027 0,0.0046 -0.00758,0.0035 -0.00575,0.0094 0.00293,0.0094 0.0043,0 0.00781,0.0018 0.00781,0.0039 0,0.0021 -0.00176,0.0039 -0.00391,0.0039 -0.00705,0 -0.00409,0.0126 0.00476,0.02027 0.0073,0.0063 0.00776,0.0081 0.00293,0.0112 -0.00503,0.0032 -0.00501,0.0042 1.254e-4,0.0076 0.00521,0.0035 0.00521,0.0044 0,0.0081 -0.00441,0.0032 -0.00465,0.0047 -9.766e-4,0.0062 0.00269,0.0011 0.00488,0.007 0.00488,0.01305 0,0.0061 0.0022,0.01196 0.00488,0.01305 0.00369,0.0015 0.00345,0.0031 -9.765e-4,0.0065 -0.00442,0.0034 -0.00466,0.005 -9.766e-4,0.0065 0.00269,0.0011 0.00488,0.0071 0.00488,0.01337 0,0.0063 0.00176,0.01139 0.00391,0.01139 0.00215,0 0.00391,0.0051 0.00391,0.01139 0,0.0063 0.0022,0.01228 0.00488,0.01337 0.00368,0.0015 0.00344,0.003 -9.765e-4,0.0062 -0.00521,0.0037 -0.00521,0.0047 0,0.0084 0.00441,0.0032 0.00465,0.0047 9.765e-4,0.0062 -0.00577,0.0023 -0.00666,0.02477 -9.765e-4,0.02477 0.00215,0 0.00391,0.007 0.00391,0.01563 0,0.0086 -0.00176,0.01563 -0.00391,0.01563 -0.00215,0 -0.00391,0.0018 -0.00391,0.0039 0,0.0021 0.00352,0.0039 0.00781,0.0039 0.0043,0 0.00781,0.0018 0.00781,0.0039 0,0.0021 -0.00176,0.0039 -0.00391,0.0039 -0.00215,0 -0.00391,0.0035 -0.00391,0.0078 0,0.0043 0.00176,0.0078 0.00391,0.0078 0.00215,0 0.00391,0.007 0.00391,0.01563 0,0.0086 -0.00176,0.01563 -0.00391,0.01563 -0.00215,0 -0.00391,0.0018 -0.00391,0.0039 0,0.0021 0.00352,0.0039 0.00781,0.0039 0.0043,0 0.00781,0.0018 0.00781,0.0039 0,0.0021 -0.00176,0.0039 -0.00391,0.0039 -0.00565,0 -0.00481,0.01461 9.765e-4,0.01696 0.00368,0.0015 0.00344,0.003 -9.765e-4,0.0062 -0.00521,0.0037 -0.00521,0.0047 0,0.0084 0.00441,0.0032 0.00465,0.0047 9.765e-4,0.0062 -0.00579,0.0023 -0.00663,0.01695 -9.765e-4,0.01695 0.00215,0 0.00391,0.0086 0.00391,0.01921 0,0.01154 0.00195,0.02012 0.00488,0.02148 0.00391,0.0018 0.00391,0.0027 0,0.0046 -0.00579,0.0027 -0.00662,0.01725 -9.765e-4,0.01725 0.00567,0 0.0048,0.02237 -9.766e-4,0.02507 -0.00391,0.0018 -0.00391,0.0027 0,0.0046 0.00337,0.0016 0.00488,0.01306 0.00488,0.03711 0,0.02062 0.00159,0.03483 0.00391,0.03483 0.00564,0 0.00481,0.01455 -9.766e-4,0.01725 -0.00391,0.0018 -0.00391,0.0027 0,0.0046 0.00579,0.0027 0.00662,0.01725 9.766e-4,0.01725 -0.00215,0 -0.00391,0.0035 -0.00391,0.0078 0,0.0043 -0.00176,0.0078 -0.00391,0.0078 -0.00215,0 -0.00391,0.007 -0.00391,0.01563 0,0.0086 -0.00176,0.01563 -0.00391,0.01563 -0.00215,0 -0.00391,0.0049 -0.00391,0.01086 0,0.0064 -0.00322,0.01318 -0.00781,0.01649 -0.0043,0.0031 -0.00781,0.0088 -0.00781,0.01258 0,0.0038 -0.00176,0.0069 -0.00391,0.0069 -0.00215,0 -0.00391,0.0035 -0.00391,0.0078 0,0.0043 -0.00176,0.0078 -0.00391,0.0078 -0.00215,0 -0.00391,0.0063 -0.00391,0.01406 0,0.01058 -0.0029,0.01676 -0.011719,0.02501 -0.00721,0.0067 -0.011719,0.01486 -0.011719,0.0211 0,0.0056 -0.00176,0.01015 -0.00391,0.01015 -0.00215,0 -0.00391,0.0028 -0.00391,0.0062 0,0.0034 -0.00703,0.01292 -0.015625,0.02118 -0.00859,0.0083 -0.015625,0.01779 -0.015625,0.02118 0,0.0034 -0.00176,0.0062 -0.00391,0.0062 -0.00215,0 -0.00391,0.0027 -0.00391,0.0059 0,0.0077 -0.080143,0.08784 -0.087845,0.08784 -0.00325,0 -0.0059,0.0018 -0.0059,0.0039 0,0.0021 -0.00277,0.0039 -0.00617,0.0039 -0.00339,0 -0.012921,0.007 -0.021178,0.01563 -0.00826,0.0086 -0.017787,0.01563 -0.021178,0.01563 -0.00339,0 -0.00617,0.0018 -0.00617,0.0039 0,0.0021 -0.00457,0.0039 -0.010152,0.0039 -0.00624,0 -0.014367,0.0045 -0.021098,0.01172 -0.00824,0.0088 -0.014422,0.01172 -0.025005,0.01172 -0.00773,0 -0.014058,0.0018 -0.014058,0.0039 0,0.0021 -0.00352,0.0039 -0.00781,0.0039 -0.0043,0 -0.00781,0.0018 -0.00781,0.0039 0,0.0021 -0.00313,0.0039 -0.00695,0.0039 -0.00382,0 -0.00948,0.0035 -0.012581,0.0078 -0.00331,0.0046 -0.010112,0.0078 -0.016487,0.0078 -0.00597,0 -0.010856,0.0018 -0.010856,0.0039 0,0.0021 -0.00703,0.0039 -0.015625,0.0039 -0.00859,0 -0.015625,0.0018 -0.015625,0.0039 0,0.0021 -0.00352,0.0039 -0.00781,0.0039 -0.0043,0 -0.00781,0.0018 -0.00781,0.0039 0,0.0021 -0.00703,0.0039 -0.015625,0.0039 -0.00859,0 -0.015625,0.0018 -0.015625,0.0039 0,0.0022 -0.010308,0.0039 -0.023112,0.0039 -0.012712,0 -0.023698,0.0017 -0.024414,0.0037 -7.161e-4,0.002 -0.01097,0.0042 -0.022786,0.0048 -0.01448,7.58e-4 -0.023544,0.0034 -0.027802,0.008 -0.00383,0.0042 -0.011908,0.0069 -0.020508,0.0069 -0.0078,0 -0.01419,0.0018 -0.01419,0.0039 0,0.0021 -0.00527,0.0039 -0.011719,0.0039 -0.00645,0 -0.011719,0.0018 -0.011719,0.0039 0,0.0021 -0.00527,0.0039 -0.011719,0.0039 -0.00645,0 -0.011719,0.0018 -0.011719,0.0039 0,0.0021 -0.00633,0.0039 -0.014058,0.0039 -0.010583,0 -0.016764,0.0029 -0.025005,0.01172 -0.00673,0.0072 -0.014856,0.01172 -0.021099,0.01172 -0.00558,0 -0.010151,0.0018 -0.010151,0.0039 0,0.0021 -0.00313,0.0039 -0.00695,0.0039 -0.00382,0 -0.00948,0.0035 -0.012581,0.0078 -0.0031,0.0043 -0.00973,0.0078 -0.014751,0.0078 -0.00599,0 -0.017024,0.0081 -0.032124,0.02344 -0.012653,0.01289 -0.02494,0.02344 -0.027305,0.02344 -0.00558,0 -0.023476,0.0179 -0.023476,0.02348 0,0.0024 -0.010547,0.01465 -0.023437,0.02731 -0.015384,0.0151 -0.023437,0.02614 -0.023437,0.03212 0,0.005 -0.00352,0.01165 -0.00781,0.01475 -0.0043,0.0031 -0.00781,0.0088 -0.00781,0.01258 0,0.0038 -0.00176,0.0069 -0.00391,0.0069 -0.00215,0 -0.00391,0.0046 -0.00391,0.01015 0,0.0062 -0.00451,0.01437 -0.011719,0.0211 -0.00882,0.0082 -0.011719,0.01442 -0.011719,0.02501 0,0.0077 -0.00176,0.01406 -0.00391,0.01406 -0.00215,0 -0.00391,0.0053 -0.00391,0.01172 0,0.0064 -0.00176,0.01172 -0.00391,0.01172 -0.00215,0 -0.00391,0.0053 -0.00391,0.01172 0,0.0064 -0.00176,0.01172 -0.00391,0.01172 -0.00215,0 -0.00391,0.0064 -0.00391,0.01419 0,0.0098 -0.00269,0.01652 -0.00866,0.0217 -0.00736,0.0064 -0.0078,0.0081 -0.00293,0.0115 0.00434,0.003 0.00455,0.0045 8.512e-4,0.006 -0.00274,0.0011 -0.00488,0.0087 -0.00488,0.01728 0,0.0084 -0.00176,0.0153 -0.00391,0.0153 -0.00217,0 -0.00391,0.01042 -0.00391,0.02344 0,0.01302 -0.00174,0.02344 -0.00391,0.02344 -0.00215,0 -0.00391,0.007 -0.00391,0.01563 0,0.0086 -0.00176,0.01563 -0.00391,0.01563 -0.00215,0 -0.00391,0.0035 -0.00391,0.0078 0,0.0043 -0.00176,0.0078 -0.00391,0.0078 -0.00215,0 -0.00391,0.007 -0.00391,0.01563 0,0.0086 -0.00176,0.01563 -0.00391,0.01563 -0.00215,0 -0.00391,0.0049 -0.00391,0.01086 0,0.0064 -0.00322,0.01318 -0.00781,0.01649 -0.0043,0.0031 -0.00781,0.0088 -0.00781,0.01258 0,0.0038 -0.00176,0.0069 -0.00391,0.0069 -0.00215,0 -0.00391,0.0035 -0.00391,0.0078 0,0.0043 -0.00176,0.0078 -0.00391,0.0078 -0.00215,0 -0.00391,0.0063 -0.00391,0.01406 0,0.01058 -0.0029,0.01676 -0.011719,0.02501 -0.00721,0.0067 -0.011719,0.01486 -0.011719,0.0211 0,0.0056 -0.00176,0.01015 -0.00391,0.01015 -0.00215,0 -0.00391,0.0028 -0.00391,0.0062 0,0.0034 -0.00703,0.01292 -0.015625,0.02118 -0.00859,0.0083 -0.015625,0.01779 -0.015625,0.02118 0,0.0034 -0.00176,0.0062 -0.00391,0.0062 -0.00215,0 -0.00391,0.0027 -0.00391,0.0059 0,0.0032 -0.018437,0.02434 -0.04097,0.04687 -0.022534,0.02253 -0.043627,0.04097 -0.046875,0.04097 -0.00325,0 -0.0059,0.0018 -0.0059,0.0039 0,0.0021 -0.00277,0.0039 -0.00617,0.0039 -0.00339,0 -0.012921,0.007 -0.021178,0.01563 -0.00826,0.0086 -0.017787,0.01563 -0.021178,0.01563 -0.00339,0 -0.00617,0.0018 -0.00617,0.0039 0,0.0021 -0.00457,0.0039 -0.010152,0.0039 -0.00624,0 -0.014367,0.0045 -0.021098,0.01172 -0.00824,0.0088 -0.014422,0.01172 -0.025005,0.01172 -0.00773,0 -0.014058,0.0018 -0.014058,0.0039 0,0.0021 -0.00352,0.0039 -0.00781,0.0039 -0.0043,0 -0.00781,0.0018 -0.00781,0.0039 0,0.0021 -0.00313,0.0039 -0.00695,0.0039 -0.00382,0 -0.00948,0.0035 -0.012581,0.0078 -0.00331,0.0046 -0.010112,0.0078 -0.016487,0.0078 -0.00597,0 -0.010856,0.0018 -0.010856,0.0039 0,0.0021 -0.00703,0.0039 -0.015625,0.0039 -0.00859,0 -0.015625,0.0018 -0.015625,0.0039 0,0.0021 -0.00352,0.0039 -0.00781,0.0039 -0.0043,0 -0.00781,0.0018 -0.00781,0.0039 0,0.0021 -0.00703,0.0039 -0.015625,0.0039 -0.00859,0 -0.015625,0.0018 -0.015625,0.0039 0,0.0022 -0.010308,0.0039 -0.023112,0.0039 -0.012712,0 -0.023698,0.0017 -0.024414,0.0037 -7.161e-4,0.002 -0.01097,0.0042 -0.022786,0.0048 -0.01448,7.58e-4 -0.023544,0.0034 -0.027802,0.008 -0.00383,0.0042 -0.011908,0.0069 -0.020508,0.0069 -0.0078,0 -0.01419,0.0018 -0.01419,0.0039 0,0.0021 -0.00527,0.0039 -0.011719,0.0039 -0.00645,0 -0.011719,0.0018 -0.011719,0.0039 0,0.0021 -0.00527,0.0039 -0.011719,0.0039 -0.00645,0 -0.011719,0.0018 -0.011719,0.0039 0,0.0021 -0.00633,0.0039 -0.014058,0.0039 -0.010583,0 -0.016764,0.0029 -0.025005,0.01172 -0.00673,0.0072 -0.014856,0.01172 -0.021098,0.01172 -0.00558,0 -0.010152,0.0018 -0.010152,0.0039 0,0.0021 -0.00313,0.0039 -0.00695,0.0039 -0.00382,0 -0.00948,0.0035 -0.012581,0.0078 -0.0031,0.0043 -0.00973,0.0078 -0.01475,0.0078 -0.00599,0 -0.017025,0.0081 -0.032125,0.02344 -0.012653,0.01289 -0.02494,0.02344 -0.027305,0.02344 -0.00558,0 -0.023476,0.0179 -0.023476,0.02348 0,0.0024 -0.010547,0.01465 -0.023437,0.02731 -0.015384,0.0151 -0.023437,0.02614 -0.023437,0.03212 0,0.005 -0.00352,0.01165 -0.00781,0.01475 -0.0043,0.0031 -0.00781,0.0088 -0.00781,0.01258 0,0.0038 -0.00176,0.0069 -0.00391,0.0069 -0.00215,0 -0.00391,0.0046 -0.00391,0.01015 0,0.0062 -0.00451,0.01437 -0.011719,0.0211 -0.00882,0.0082 -0.011719,0.01442 -0.011719,0.02501 0,0.0077 -0.00176,0.01406 -0.00391,0.01406 -0.00215,0 -0.00391,0.0053 -0.00391,0.01172 0,0.0064 -0.00176,0.01172 -0.00391,0.01172 -0.00215,0 -0.00391,0.0053 -0.00391,0.01172 0,0.0064 -0.00176,0.01172 -0.00391,0.01172 -0.00215,0 -0.00391,0.0064 -0.00391,0.01419 0,0.0098 -0.00269,0.01652 -0.00866,0.0217 -0.00736,0.0064 -0.0078,0.0081 -0.00293,0.0115 0.00434,0.003 0.00455,0.0045 8.512e-4,0.006 -0.00274,0.0011 -0.00488,0.0087 -0.00488,0.01728 0,0.0084 -0.00176,0.0153 -0.00391,0.0153 -0.00217,0 -0.00391,0.01042 -0.00391,0.02344 0,0.01302 -0.00174,0.02344 -0.00391,0.02344 -0.00215,0 -0.00391,0.007 -0.00391,0.01563 0,0.0086 -0.00176,0.01563 -0.00391,0.01563 -0.00215,0 -0.00391,0.0035 -0.00391,0.0078 0,0.0043 -0.00176,0.0078 -0.00391,0.0078 -0.00215,0 -0.00391,0.007 -0.00391,0.01563 0,0.0086 -0.00176,0.01563 -0.00391,0.01563 -0.00215,0 -0.00391,0.0049 -0.00391,0.01086 0,0.0064 -0.00322,0.01318 -0.00781,0.01649 -0.0043,0.0031 -0.00781,0.0088 -0.00781,0.01258 0,0.0038 -0.00176,0.0069 -0.00391,0.0069 -0.00215,0 -0.00391,0.0035 -0.00391,0.0078 0,0.0043 -0.00176,0.0078 -0.00391,0.0078 -0.00215,0 -0.00391,0.0063 -0.00391,0.01406 0,0.01058 -0.0029,0.01676 -0.011719,0.02501 -0.00721,0.0067 -0.011719,0.01486 -0.011719,0.0211 0,0.0056 -0.00176,0.01015 -0.00391,0.01015 -0.00215,0 -0.00391,0.0028 -0.00391,0.0062 0,0.0034 -0.00703,0.01292 -0.015625,0.02118 -0.00859,0.0083 -0.015625,0.01779 -0.015625,0.02118 0,0.0034 -0.00176,0.0062 -0.00391,0.0062 -0.00215,0 -0.00391,0.0027 -0.00391,0.0059 0,0.0032 -0.018437,0.02434 -0.04097,0.04687 -0.022534,0.02253 -0.043627,0.04097 -0.046875,0.04097 -0.00325,0 -0.0059,0.0018 -0.0059,0.0039 0,0.0021 -0.00277,0.0039 -0.00617,0.0039 -0.00339,0 -0.012921,0.007 -0.021178,0.01563 -0.00826,0.0086 -0.017787,0.01563 -0.021178,0.01563 -0.00339,0 -0.00617,0.0018 -0.00617,0.0039 0,0.0021 -0.00457,0.0039 -0.010152,0.0039 -0.00624,0 -0.014367,0.0045 -0.021098,0.01172 -0.00824,0.0088 -0.014422,0.01172 -0.025005,0.01172 -0.00773,0 -0.014058,0.0018 -0.014058,0.0039 0,0.0021 -0.00352,0.0039 -0.00781,0.0039 -0.0043,0 -0.00781,0.0018 -0.00781,0.0039 0,0.0021 -0.00313,0.0039 -0.00695,0.0039 -0.00382,0 -0.00948,0.0035 -0.012581,0.0078 -0.00331,0.0046 -0.010112,0.0078 -0.016487,0.0078 -0.00597,0 -0.010856,0.0018 -0.010856,0.0039 0,0.0021 -0.00703,0.0039 -0.015625,0.0039 -0.00859,0 -0.015625,0.0018 -0.015625,0.0039 0,0.0021 -0.00352,0.0039 -0.00781,0.0039 -0.0043,0 -0.00781,0.0018 -0.00781,0.0039 0,0.0021 -0.00703,0.0039 -0.015625,0.0039 -0.00859,0 -0.015625,0.0018 -0.015625,0.0039 0,0.0022 -0.010308,0.0039 -0.023112,0.0039 -0.012712,0 -0.023698,0.0017 -0.024414,0.0037 -7.161e-4,0.002 -0.01097,0.0042 -0.022786,0.0048 -0.01448,7.58e-4 -0.023544,0.0034 -0.027802,0.008 -0.00383,0.0042 -0.011908,0.0069 -0.020508,0.0069 -0.0078,0 -0.01419,0.0018 -0.01419,0.0039 0,0.0021 -0.00527,0.0039 -0.011719,0.0039 -0.00645,0 -0.011719,0.0018 -0.011719,0.0039 0,0.0021 -0.00527,0.0039 -0.011719,0.0039 -0.00645,0 -0.011719,0.0018 -0.011719,0.0039 0,0.0021 -0.00633,0.0039 -0.014058,0.0039 -0.010583,0 -0.016764,0.0029 -0.025005,0.01172 -0.00673,0.0072 -0.014856,0.01172 -0.021098,0.01172 -0.00558,0 -0.010152,0.0018 -0.010152,0.0039 0,0.0021 -0.00313,0.0039 -0.00695,0.0039 -0.00382,0 -0.00948,0.0035 -0.012581,0.0078 -0.0031,0.0043 -0.00973,0.0078 -0.01475,0.0078 -0.00599,0 -0.017025,0.0081 -0.032125,0.02344 -0.012653,0.01289 -0.02494,0.02344 -0.027305,0.02344 -0.00558,0 -0.023476,0.0179 -0.023476,0.02348 0,0.0024 -0.010547,0.01465 -0.023437,0.02731 -0.015384,0.0151 -0.023437,0.02614 -0.023437,0.03212 0,0.005 -0.00352,0.01165 -0.00781,0.01475 -0.0043,0.0031 -0.00781,0.0088 -0.00781,0.01258 0,0.0038 -0.00176,0.0069 -0.00391,0.0069 -0.00215,0 -0.00391,0.0046 -0.00391,0.01015 0,0.0062 -0.00451,0.01437 -0.011719,0.0211 -0.00882,0.0082 -0.011719,0.01442 -0.011719,0.02501 0,0.0077 -0.00176,0.01406 -0.00391,0.01406 -0.00215,0 -0.00391,0.0053 -0.00391,0.01172 0,0.0064 -0.00176,0.01172 -0.00391,0.01172 -0.00215,0 -0.00391,0.0053 -0.00391,0.01172 0,0.0064 -0.00176,0.01172 -0.00391,0.01172 -0.00215,0 -0.00391,0.0064 -0.00391,0.01419 0,0.0098 -0.00269,0.01652 -0.00866,0.0217 -0.00736,0.0064 -0.0078,0.0081 -0.00293,0.0115 0.00434,0.003 0.00455,0.0045 8.512e-4,0.006 -0.00274,0.0011 -0.00488,0.0087 -0.00488,0.01728 0,0.0084 -0.00176,0.0153 -0.00391,0.0153 -0.00217,0 -0.00391,0.01042 -0.00391,0.02344 0,0.01302 -0.00174,0.02344 -0.00391,0.02344 -0.00215,0 -0.00391,0.007 -0.00391,0.01563 0,0.0086 -0.00176,0.01563 -0.00391,0.01563 -0.00215,0 -0.00391,0.0035 -0.00391,0.0078 0,0.0043 -0.00176,0.0078 -0.00391,0.0078 -0.00215,0 -0.00391,0.007 -0.00391,0.01563 0,0.0086 -0.00176,0.01563 -0.00391,0.01563 -0.00215,0 -0.00391,0.0049 -0.00391,0.01086 0,0.0064 -0.00322,0.01318 -0.00781,0.01649 -0.0043,0.0031 -0.00781,0.0088 -0.00781,0.01258 0,0.0038 -0.00176,0.0069 -0.00391,0.0069 -0.00215,0 -0.00391,0.0035 -0.00391,0.0078 0,0.0043 -0.00176,0.0078 -0.00391,0.0078 -0.00215,0 -0.00391,0.0063 -0.00391,0.01406 0,0.01058 -0.0029,0.01676 -0.011719,0.02501 -0.00721,0.0067 -0.011719,0.01486 -0.011719,0.0211 0,0.0056 -0.00176,0.01015 -0.00391,0.01015 -0.00215,0 -0.00391,0.0028 -0.00391,0.0062 0,0.0034 -0.00703,0.01292 -0.015625,0.02118 -0.00859,0.0083 -0.015625,0.01779 -0.015625,0.02118 0,0.0034 -0.00176,0.0062 -0.00391,0.0062 -0.00215,0 -0.00391,0.0027 -0.00391,0.0059 0,0.0077 -0.080143,0.08784 -0.087845,0.08784 -0.00325,0 -0.0059,0.0018 -0.0059,0.0039 0,0.0021 -0.00277,0.0039 -0.00617,0.0039 -0.00339,0 -0.012921,0.007 -0.021178,0.01563 -0.00826,0.0086 -0.017787,0.01563 -0.021178,0.01563 -0.00339,0 -0.00617,0.0018 -0.00617,0.0039 0,0.0021 -0.00457,0.0039 -0.010152,0.0039 -0.00624,0 -0.014367,0.0045 -0.021098,0.01172 -0.00824,0.0088 -0.014422,0.01172 -0.025005,0.01172 -0.00773,0 -0.014058,0.0018 -0.014058,0.0039 0,0.0021 -0.00352,0.0039 -0.00781,0.0039 -0.0043,0 -0.00781,0.0018 -0.00781,0.0039 0,0.0021 -0.00313,0.0039 -0.00695,0.0039 -0.00382,0 -0.00948,0.0035 -0.012581,0.0078 -0.00331,0.0046 -0.010112,0.0078 -0.016487,0.0078 -0.00597,0 -0.010856,0.0018 -0.010856,0.0039 0,0.0021 -0.00703,0.0039 -0.015625,0.0039 -0.00859,0 -0.015625,0.0018 -0.015625,0.0039 0,0.0021 -0.00352,0.0039 -0.00781,0.0039 -0.0043,0 -0.00781,0.0018 -0.00781,0.0039 0,0.0021 -0.00352,0.0039 -0.00781,0.0039 -0.0043,0 -0.00781,-0.0018 -0.00781,-0.0039 z"
         id="path18" /><path
         style="fill:#0857ae;fill-opacity:1;stroke-width:0.00998032;stroke-linejoin:bevel"
         d="M 14.497618,10.359085 C 14.363538,10.295438 14.2759,10.169973 14.168012,10.072737 14.021147,9.9249718 13.873385,9.7779704 13.726886,9.6299446 c -0.03523,-0.046566 -0.08799,-0.1009782 -0.07512,-0.1632748 0.01479,-0.09718 0.03186,-0.1943042 0.06215,-0.2877709 0.02747,-0.091335 0.06479,-0.183144 0.128114,-0.2548509 0.11013,-0.1550714 0.302444,-0.2134282 0.480299,-0.2492154 0.0661,-0.010242 0.133492,-0.031844 0.200271,-0.025257 0.114143,0.024353 0.238457,0.056524 0.319797,0.1452846 0.07344,0.1390787 0.08378,0.3004388 0.102464,0.454012 0.03101,0.2469415 0.0086,0.4968382 -0.03129,0.7412853 -0.02201,0.091955 -0.03222,0.2027785 -0.114717,0.2625245 -0.08826,0.05623 -0.190785,0.08813 -0.292844,0.106954 4.26e-4,-0.0029 -0.0088,0.0023 -0.0084,-5.51e-4 z M 13.936139,8.839607 c 0.04278,-0.044259 -0.04052,0.028703 0,0 z m 0.09,-0.058539 c -0.0068,-0.00378 -0.0046,-0.00257 0,0 z"
         id="path20" /><path
         style="fill:#0857ae;fill-opacity:1;stroke-width:0.00998032;stroke-linejoin:bevel"
         d="M 16.488287,9.3261804 C 16.350067,9.2779028 16.276972,9.1371689 16.166312,9.0494662 16.014103,8.8919294 15.852405,8.7434834 15.70603,8.5805212 15.63434,8.4516769 15.71788,8.3083487 15.74616,8.1789517 c 0.06762,-0.2099411 0.237566,-0.3814089 0.45193,-0.4401332 0.149199,-0.04856 0.316371,-0.099261 0.466565,-0.027036 0.133748,0.029847 0.194839,0.1547765 0.221861,0.2776811 0.0536,0.2497971 0.07915,0.5086703 0.04314,0.7630153 -0.02241,0.1555428 -0.03508,0.3261271 -0.127067,0.4581148 -0.07974,0.074624 -0.208098,0.1219756 -0.314298,0.1155869 z"
         id="path21" /><path
         style="fill:#0857ae;fill-opacity:1;stroke-width:0.00998032;stroke-linejoin:bevel"
         d="m 19.46875,7.9550781 c -0.24512,-0.073484 -0.491153,-0.1645588 -0.699899,-0.3144946 -0.08816,-0.068614 -0.11807,-0.1791679 -0.07284,-0.281923 0.0448,-0.2301137 0.158097,-0.4712157 0.383704,-0.5714471 0.135158,-0.062187 0.283228,-0.1069488 0.431769,-0.1142557 0.128393,0.016538 0.262849,0.068134 0.349957,0.1666799 0.08892,0.1347248 0.06809,0.3069639 0.09054,0.460173 0.03621,0.1717686 -0.01301,0.3521956 -0.135507,0.4792379 -0.09003,0.089398 -0.215173,0.1792262 -0.347721,0.1760296 z"
         id="path24" /><path
         style="fill:#0857ae;fill-opacity:1;stroke-width:0.00998032;stroke-linejoin:bevel"
         d="m 28.492187,15.455078 c -0.119452,-0.04617 -0.175333,-0.170975 -0.240876,-0.271608 -0.0877,-0.15906 -0.162203,-0.32629 -0.207938,-0.502396 -0.0467,-0.103084 -0.06694,-0.218327 0.02127,-0.306606 0.10631,-0.159895 0.253769,-0.29628 0.429227,-0.376219 0.103039,1.39e-4 0.201986,0.05218 0.302962,0.07691 0.13605,0.04698 0.26771,0.106479 0.393248,0.176653 0.09944,0.06734 0.232947,0.123684 0.267798,0.249943 -0.01377,0.208418 -0.01601,0.422708 -0.07704,0.625151 -0.03381,0.139311 -0.157201,0.239576 -0.2957,0.264643 -0.193515,0.04762 -0.394919,0.05468 -0.59295,0.06353 z"
         id="path26" /><path
         style="fill:#0857ae;fill-opacity:1;stroke-width:0.00998032;stroke-linejoin:bevel"
         d="m 12.457031,25.341797 c -0.119552,-0.03544 -0.276067,-0.06539 -0.312542,-0.205754 -0.07591,-0.2004 -0.07593,-0.418873 -0.09374,-0.629782 0.04637,-0.187815 0.176531,-0.351666 0.357824,-0.424107 0.131232,-0.07315 0.26097,0.02925 0.387726,0.0615 0.173521,0.06858 0.346941,0.148876 0.492882,0.26617 0.103236,0.09434 0.03386,0.229815 0.01244,0.342276 -0.04733,0.207972 -0.174533,0.408081 -0.379371,0.489151 -0.144097,0.06063 -0.300856,0.09928 -0.456648,0.105927 l -0.0086,-0.0053 z"
         id="path32" /><path
         style="fill:#0857ae;fill-opacity:1;stroke-width:0.0399213;stroke-linejoin:bevel"
         d="M 1.390625,26.255755 C 1.1062151,26.204054 0.9615347,26.028 0.82833459,25.829731 0.67666893,25.603976 0.01408501,23.62425 0,22.5 -0.01280822,21.477662 0.614843,19.612297 0.614843,19.612297 0.7038203,19.523317 0.71612192,19.503041 0.74043022,19.405266 0.82954222,19.046833 1.0357243,18.837323 1.389726,18.74549 c 0.086483,-0.02244 0.1217172,-0.02572 0.1374688,-0.01283 0.1161885,0.09511 0.248041,0.339305 0.3567539,0.660718 0.037022,0.109456 0.037926,0.124038 0.037926,0.611562 v 0.499433 l -0.067421,0.09156 c -0.1038746,0.14107 -0.2454443,0.259206 -0.4216084,0.351822 -0.1927755,0.10135 -0.3265013,0.221464 -0.428174,0.384591 -0.0943073,0.15131 -0.0943073,0.18399 0,0.3353 0.1018461,0.163405 0.2353492,0.283215 0.4290724,0.385063 0.1727084,0.0908 0.3213511,0.214336 0.4207636,0.349697 l 0.059555,0.08109 0.00781,0.531967 0.00781,0.531967 0.074203,0.119008 c 0.1037876,0.166456 0.2355606,0.284241 0.4339129,0.38785 0.1333905,0.06968 0.1885755,0.110242 0.2975786,0.218749 0.092099,0.09168 0.1478467,0.162437 0.1788121,0.226959 0.1221003,0.254417 0.2729714,0.423252 0.4713929,0.527519 l 0.1111703,0.05842 H 6.5121345 9.527517 l 0.1463951,0.05358 c 0.2478753,0.09072 0.5121959,0.232886 0.5739109,0.308681 l 0.03689,0.04531 -0.02605,0.10481 c -0.08886,0.357532 -0.2944805,0.563844 -0.6561443,0.658339 -0.1239961,0.0324 -0.1253323,0.03241 -4.109375,0.03146 -1.2985392,1.25e-4 -3.5346105,0.07088 -4.1025187,-0.03236 z"
         id="path33"
         sodipodi:nodetypes="sszcsccsscsssssscccssssscccsscssss" /><path
         style="fill:#0857ae;fill-opacity:1;stroke-width:0.00998032;stroke-linejoin:bevel"
         d="m 3.4921875,17.978516 c 0,-0.0021 -0.00527,-0.0039 -0.011719,-0.0039 -0.00645,0 -0.011719,-0.0014 -0.011719,-0.0031 0,-0.0017 -0.00654,-0.0033 -0.014528,-0.0035 -0.00799,-2.26e-4 -0.015168,-0.0023 -0.015951,-0.0047 -7.825e-4,-0.0023 -0.00655,-0.0043 -0.012816,-0.0043 -0.00627,0 -0.011393,-0.0019 -0.011393,-0.0042 0,-0.0023 -0.00329,-0.0031 -0.0074,-0.0018 -0.00425,0.0013 -0.00995,-2.04e-4 -0.013393,-0.0036 -0.0033,-0.0033 -0.01227,-0.006 -0.019943,-0.006 -0.00767,0 -0.013951,-0.0018 -0.013951,-0.0039 0,-0.0021 -0.00527,-0.0039 -0.011719,-0.0039 -0.00645,0 -0.011719,-0.0018 -0.011719,-0.0039 0,-0.0021 -0.00527,-0.0039 -0.011719,-0.0039 -0.00645,0 -0.011719,-0.0018 -0.011719,-0.0039 0,-0.0021 -0.00703,-0.0039 -0.015625,-0.0039 -0.00859,0 -0.015625,-0.0018 -0.015625,-0.0039 0,-0.0021 -0.00527,-0.0039 -0.011719,-0.0039 -0.00645,0 -0.011719,-0.0018 -0.011719,-0.0039 0,-0.0021 -0.00527,-0.0039 -0.011719,-0.0039 -0.00864,0 -0.011719,-0.0018 -0.011719,-0.007 0,-0.0058 -0.00385,-0.0071 -0.022461,-0.0079 -0.012354,-5.12e-4 -0.023047,-0.0026 -0.023763,-0.0047 -7.162e-4,-0.0021 -0.00467,-0.0038 -0.00879,-0.0038 -0.00412,0 -0.00749,-0.0018 -0.00749,-0.0039 0,-0.0021 -0.00352,-0.0039 -0.00781,-0.0039 -0.0043,0 -0.00781,-0.0018 -0.00781,-0.0039 0,-0.0021 -0.00352,-0.0039 -0.00781,-0.0039 -0.0043,0 -0.00781,-0.0018 -0.00781,-0.0039 0,-0.0021 -0.00352,-0.0039 -0.00781,-0.0039 -0.0043,0 -0.00781,-0.0018 -0.00781,-0.0039 0,-0.0021 -0.00527,-0.0039 -0.011719,-0.0039 -0.00645,0 -0.011719,-0.0018 -0.011719,-0.0039 0,-0.0021 -0.00527,-0.0039 -0.011719,-0.0039 -0.00645,0 -0.011719,-0.0018 -0.011719,-0.0039 0,-0.0021 -0.00352,-0.0039 -0.00781,-0.0039 -0.0043,0 -0.00781,-0.0018 -0.00781,-0.0039 0,-0.0021 -0.00352,-0.0039 -0.00781,-0.0039 -0.0043,0 -0.00781,-0.0018 -0.00781,-0.0039 0,-0.0021 -0.00352,-0.0039 -0.00781,-0.0039 -0.0043,0 -0.00781,-0.0018 -0.00781,-0.0039 0,-0.0021 -0.00527,-0.0039 -0.011719,-0.0039 -0.00645,0 -0.011719,-0.0018 -0.011719,-0.0039 0,-0.0021 -0.00352,-0.0039 -0.00781,-0.0039 -0.0043,0 -0.00781,-0.0018 -0.00781,-0.0039 0,-0.0021 -0.00352,-0.0039 -0.00781,-0.0039 -0.0043,0 -0.00781,-0.0018 -0.00781,-0.0039 0,-0.0021 -0.00527,-0.0039 -0.011719,-0.0039 -0.00911,0 -0.011719,-0.0017 -0.011719,-0.0078 0,-0.0064 -0.0026,-0.0078 -0.014058,-0.0078 -0.010583,0 -0.016764,-0.0029 -0.025005,-0.01172 -0.00602,-0.0064 -0.013757,-0.01172 -0.017192,-0.01172 -0.00343,0 -0.00625,-0.0018 -0.00625,-0.0039 0,-0.0021 -0.00352,-0.0039 -0.00781,-0.0039 -0.0043,0 -0.00781,-0.0018 -0.00781,-0.0039 0,-0.0021 -0.00352,-0.0039 -0.00781,-0.0039 -0.0043,0 -0.00781,-0.0018 -0.00781,-0.0039 0,-0.0021 -0.00313,-0.0039 -0.00695,-0.0039 -0.00382,0 -0.00948,-0.0035 -0.012581,-0.0078 -0.0031,-0.0043 -0.00876,-0.0078 -0.012581,-0.0078 -0.00382,0 -0.00695,-0.0018 -0.00695,-0.0039 0,-0.0021 -0.00313,-0.0039 -0.00695,-0.0039 -0.00382,0 -0.00948,-0.0035 -0.012581,-0.0078 -0.0031,-0.0043 -0.00876,-0.0078 -0.012581,-0.0078 -0.00382,0 -0.00695,-0.0018 -0.00695,-0.0039 0,-0.0021 -0.00275,-0.0039 -0.00611,-0.0039 -0.00336,0 -0.014674,-0.0088 -0.025137,-0.01953 -0.010463,-0.01074 -0.021775,-0.01953 -0.025137,-0.01953 -0.00351,0 -0.00611,-0.0033 -0.00611,-0.0078 0,-0.0052 -0.0026,-0.0078 -0.00781,-0.0078 -0.00489,0 -0.00781,-0.0026 -0.00781,-0.0069 0,-0.0038 -0.00352,-0.0095 -0.00781,-0.01258 -0.0043,-0.0031 -0.00781,-0.0098 -0.00781,-0.01492 0,-0.0053 -0.00505,-0.01401 -0.011719,-0.02024 -0.00645,-0.006 -0.011719,-0.01337 -0.011719,-0.01633 0,-0.003 -0.00352,-0.0079 -0.00781,-0.01101 -0.0043,-0.0031 -0.00781,-0.0098 -0.00781,-0.01481 0,-0.009 -0.00802,-0.02034 -0.014445,-0.02034 -0.00437,0 -0.0013,-0.06018 0.00316,-0.06185 0.00191,-7.16e-4 0.00347,-0.01346 0.00347,-0.02832 0,-0.01541 0.00168,-0.02702 0.00391,-0.02702 0.00217,0 0.00391,-0.01042 0.00391,-0.02344 0,-0.01302 0.00174,-0.02344 0.00391,-0.02344 0.00215,0 0.00391,-0.0088 0.00391,-0.01953 0,-0.01074 0.00176,-0.01953 0.00391,-0.01953 0.00215,0 0.00391,-0.0088 0.00391,-0.01953 0,-0.01074 0.00176,-0.01953 0.00391,-0.01953 0.00215,0 0.00391,-0.007 0.00391,-0.01563 0,-0.0086 0.00176,-0.01563 0.00391,-0.01563 0.00215,0 0.00391,-0.007 0.00391,-0.01563 0,-0.0086 0.00176,-0.01563 0.00391,-0.01563 0.00215,0 0.00391,-0.007 0.00391,-0.01563 0,-0.0086 0.00176,-0.01563 0.00391,-0.01563 0.00215,0 0.00391,-0.007 0.00391,-0.01563 0,-0.0086 0.00176,-0.01563 0.00391,-0.01563 0.00215,0 0.00391,-0.0053 0.00391,-0.01172 0,-0.0064 0.00176,-0.01172 0.00391,-0.01172 0.00215,0 0.00391,-0.0053 0.00391,-0.01172 0,-0.0064 0.00176,-0.01172 0.00391,-0.01172 0.00215,0 0.00391,-0.0035 0.00391,-0.0078 0,-0.0043 0.00176,-0.0078 0.00391,-0.0078 0.00215,0 0.00391,-0.0053 0.00391,-0.01172 0,-0.0064 0.00176,-0.01172 0.00391,-0.01172 0.00215,0 0.00391,-0.0035 0.00391,-0.0078 0,-0.0043 0.00176,-0.0078 0.00391,-0.0078 0.00215,0 0.00391,-0.0035 0.00391,-0.0078 0,-0.0043 0.00176,-0.0078 0.00391,-0.0078 0.00215,0 0.00391,-0.0049 0.00391,-0.01086 0,-0.0064 0.00322,-0.01318 0.00781,-0.01649 0.0043,-0.0031 0.00781,-0.0088 0.00781,-0.01258 0,-0.0038 0.00176,-0.007 0.00391,-0.007 0.00215,0 0.00391,-0.0035 0.00391,-0.0078 0,-0.0043 0.00176,-0.0078 0.00391,-0.0078 0.00215,0 0.00391,-0.0031 0.00391,-0.0069 0,-0.0038 0.00352,-0.0095 0.00781,-0.01258 0.0043,-0.0031 0.00781,-0.0081 0.00781,-0.01101 0,-0.003 0.00527,-0.01031 0.011719,-0.01633 0.00645,-0.006 0.011719,-0.0129 0.011719,-0.01529 0,-0.0057 0.072794,-0.07846 0.078461,-0.07846 0.00239,0 0.00927,-0.0053 0.015289,-0.01172 0.00602,-0.0064 0.013369,-0.01172 0.01633,-0.01172 0.00296,0 0.00792,-0.0035 0.011014,-0.0078 0.0031,-0.0043 0.00876,-0.0078 0.012581,-0.0078 0.00382,0 0.00695,-0.0018 0.00695,-0.0039 0,-0.0021 0.00352,-0.0039 0.00781,-0.0039 0.0043,0 0.00781,-0.0018 0.00781,-0.0039 0,-0.0021 0.00313,-0.0039 0.00695,-0.0039 0.00382,0 0.00948,-0.0035 0.012581,-0.0078 0.00331,-0.0046 0.010112,-0.0078 0.016487,-0.0078 0.00597,0 0.010856,-0.0018 0.010856,-0.0039 0,-0.0021 0.00352,-0.0039 0.00781,-0.0039 0.0043,0 0.00781,-0.0018 0.00781,-0.0039 0,-0.0021 0.00352,-0.0039 0.00781,-0.0039 0.0043,0 0.00781,-0.0018 0.00781,-0.0039 0,-0.0021 0.00527,-0.0039 0.011719,-0.0039 0.00645,0 0.011719,-0.0018 0.011719,-0.0039 0,-0.0021 0.00352,-0.0039 0.00781,-0.0039 0.0043,0 0.00781,-0.0018 0.00781,-0.0039 0,-0.0021 0.00527,-0.0039 0.011719,-0.0039 0.00645,0 0.011719,-0.0018 0.011719,-0.0039 0,-0.0021 0.00527,-0.0039 0.011719,-0.0039 0.00645,0 0.011719,-0.0018 0.011719,-0.0039 0,-0.0021 0.00703,-0.0039 0.015625,-0.0039 0.00859,0 0.015625,-0.0018 0.015625,-0.0039 0,-0.0021 0.00703,-0.0039 0.015625,-0.0039 0.00859,0 0.015625,-0.0018 0.015625,-0.0039 0,-0.0021 0.00703,-0.0039 0.015625,-0.0039 0.00859,0 0.015625,-0.0018 0.015625,-0.0039 0,-0.0021 0.00703,-0.0039 0.015625,-0.0039 0.00859,0 0.015625,-0.0018 0.015625,-0.0039 0,-0.0021 0.00879,-0.0039 0.019531,-0.0039 0.010742,0 0.019531,-0.0018 0.019531,-0.0039 0,-0.0021 0.00879,-0.0039 0.019531,-0.0039 0.010742,0 0.019531,-0.0018 0.019531,-0.0039 0,-0.0022 0.010417,-0.0039 0.023437,-0.0039 0.013021,0 0.023437,-0.0017 0.023437,-0.0039 0,-0.0022 0.01161,-0.0039 0.027018,-0.0039 0.01486,0 0.027604,-0.0016 0.02832,-0.0035 0.00167,-0.0045 0.061849,-0.0075 0.061849,-0.0032 0,0.0064 0.0113,0.01445 0.020343,0.01445 0.00505,0 0.011716,0.0035 0.014813,0.0078 0.0031,0.0043 0.00805,0.0078 0.011014,0.0078 0.00296,0 0.010309,0.0053 0.01633,0.01172 0.00623,0.0067 0.014952,0.01172 0.020236,0.01172 0.00511,0 0.011823,0.0035 0.01492,0.0078 0.0031,0.0043 0.00876,0.0078 0.012581,0.0078 0.00435,0 0.00695,0.0029 0.00695,0.0078 0,0.0052 0.0026,0.0078 0.00781,0.0078 0.00448,0 0.00781,0.0026 0.00781,0.0061 0,0.0034 0.00879,0.01467 0.019531,0.02514 0.010742,0.01046 0.019531,0.02178 0.019531,0.02514 0,0.0034 0.00176,0.0061 0.00391,0.0061 0.00215,0 0.00391,0.0031 0.00391,0.0069 0,0.0038 0.00352,0.0095 0.00781,0.01258 0.0043,0.0031 0.00781,0.0088 0.00781,0.01258 0,0.0038 0.00176,0.0069 0.00391,0.0069 0.00215,0 0.00391,0.0031 0.00391,0.007 0,0.0038 0.00352,0.0095 0.00781,0.01258 0.0043,0.0031 0.00781,0.0088 0.00781,0.01258 0,0.0038 0.00176,0.0069 0.00391,0.0069 0.00215,0 0.00391,0.0035 0.00391,0.0078 0,0.0043 0.00176,0.0078 0.00391,0.0078 0.00215,0 0.00391,0.0035 0.00391,0.0078 0,0.0043 0.00176,0.0078 0.00391,0.0078 0.00215,0 0.00391,0.0028 0.00391,0.0062 0,0.0034 0.00527,0.01117 0.011719,0.01719 0.00882,0.0082 0.011719,0.01442 0.011719,0.02501 0,0.01145 0.00145,0.01406 0.00781,0.01406 0.00608,0 0.00781,0.0026 0.00781,0.01172 0,0.0064 0.00176,0.01172 0.00391,0.01172 0.00215,0 0.00391,0.0035 0.00391,0.0078 0,0.0043 0.00176,0.0078 0.00391,0.0078 0.00215,0 0.00391,0.0035 0.00391,0.0078 0,0.0043 0.00176,0.0078 0.00391,0.0078 0.00215,0 0.00391,0.0053 0.00391,0.01172 0,0.0064 0.00176,0.01172 0.00391,0.01172 0.00215,0 0.00391,0.0035 0.00391,0.0078 0,0.0043 0.00176,0.0078 0.00391,0.0078 0.00215,0 0.00391,0.0035 0.00391,0.0078 0,0.0043 0.00176,0.0078 0.00391,0.0078 0.00215,0 0.00391,0.0035 0.00391,0.0078 0,0.0043 0.00176,0.0078 0.00391,0.0078 0.00215,0 0.00391,0.0053 0.00391,0.01172 0,0.0064 0.00176,0.01172 0.00391,0.01172 0.00215,0 0.00391,0.0053 0.00391,0.01172 0,0.0064 0.00176,0.01172 0.00391,0.01172 0.00215,0 0.00391,0.0035 0.00391,0.0078 0,0.0043 0.00176,0.0078 0.00391,0.0078 0.00215,0 0.00391,0.0035 0.00391,0.0078 0,0.0043 0.00176,0.0078 0.00391,0.0078 0.00215,0 0.00391,0.0035 0.00391,0.0078 0,0.0043 0.00176,0.0078 0.00391,0.0078 0.00215,0 0.00391,0.0035 0.00391,0.0078 0,0.0043 0.00176,0.0078 0.00391,0.0078 0.00215,0 0.00391,0.0069 0.00391,0.0153 0,0.0084 0.0022,0.01632 0.00488,0.01758 0.00391,0.0018 0.00391,0.0027 0,0.0046 -0.00758,0.0035 -0.00575,0.0094 0.00293,0.0094 0.00608,0 0.00781,0.0026 0.00781,0.01172 0,0.0064 0.00176,0.01172 0.00391,0.01172 0.00215,0 0.00391,0.0053 0.00391,0.01172 0,0.0064 0.00176,0.01172 0.00391,0.01172 0.00215,0 0.00391,0.007 0.00391,0.01563 0,0.0086 0.00176,0.01563 0.00391,0.01563 0.00215,0 0.00391,0.0053 0.00391,0.01172 0,0.0064 0.00176,0.01172 0.00391,0.01172 0.00215,0 0.00391,0.0053 0.00391,0.01172 0,0.0064 0.00176,0.01172 0.00391,0.01172 0.00215,0 0.00391,0.0064 0.00391,0.01419 0,0.0098 0.00269,0.01652 0.00866,0.0217 0.00736,0.0064 0.0078,0.0081 0.00293,0.0115 -0.00434,0.003 -0.00455,0.0045 -8.512e-4,0.006 0.00269,0.0011 0.00488,0.0071 0.00488,0.01337 0,0.0063 0.00176,0.01139 0.00391,0.01139 0.00215,0 0.00391,0.0034 0.00391,0.0075 0,0.0041 0.0022,0.0084 0.00488,0.0095 0.00369,0.0015 0.00345,0.0031 -9.765e-4,0.0065 -0.00442,0.0034 -0.00466,0.005 -9.766e-4,0.0065 0.00269,0.0011 0.00488,0.0071 0.00488,0.01337 0,0.0063 0.00176,0.01139 0.00391,0.01139 0.00691,0 0.00416,0.01372 -0.00391,0.01953 -0.0043,0.0031 -0.00781,0.0088 -0.00781,0.01258 0,0.0038 -0.00176,0.0069 -0.00391,0.0069 -0.00215,0 -0.00391,0.0035 -0.00391,0.0078 0,0.0043 -0.00176,0.0078 -0.00391,0.0078 -0.00215,0 -0.00391,0.0031 -0.00391,0.0069 0,0.0038 -0.00352,0.0095 -0.00781,0.01258 -0.0043,0.0031 -0.00781,0.0088 -0.00781,0.01258 0,0.0038 -0.00176,0.0069 -0.00391,0.0069 -0.00215,0 -0.00391,0.0031 -0.00391,0.007 0,0.0038 -0.00352,0.0095 -0.00781,0.01258 -0.0043,0.0031 -0.00781,0.0084 -0.00781,0.01172 0,0.0033 -0.00352,0.0086 -0.00781,0.01172 -0.0043,0.0031 -0.00781,0.0081 -0.00781,0.01101 0,0.003 -0.00527,0.01031 -0.011719,0.01633 -0.00645,0.006 -0.011719,0.01302 -0.011719,0.01554 0,0.0025 -0.00703,0.01135 -0.015625,0.01961 -0.00859,0.0083 -0.015625,0.01692 -0.015625,0.01925 0,0.0055 -0.1275492,0.13309 -0.1330896,0.13309 -0.00233,0 -0.010997,0.007 -0.019254,0.01563 -0.00826,0.0086 -0.017082,0.01563 -0.019611,0.01563 -0.00253,0 -0.00952,0.0053 -0.015545,0.01172 -0.00602,0.0064 -0.013369,0.01172 -0.01633,0.01172 -0.00296,0 -0.00792,0.0035 -0.011014,0.0078 -0.0031,0.0043 -0.00837,0.0078 -0.011719,0.0078 -0.00335,0 -0.00862,0.0035 -0.011719,0.0078 -0.0031,0.0043 -0.00876,0.0078 -0.012581,0.0078 -0.00382,0 -0.00695,0.0018 -0.00695,0.0039 0,0.0021 -0.00313,0.0039 -0.00695,0.0039 -0.00382,0 -0.00948,0.0035 -0.012581,0.0078 -0.0031,0.0043 -0.00876,0.0078 -0.012581,0.0078 -0.00382,0 -0.00695,0.0018 -0.00695,0.0039 0,0.0021 -0.00352,0.0039 -0.00781,0.0039 -0.0043,0 -0.00781,0.0018 -0.00781,0.0039 0,0.0021 -0.00313,0.0039 -0.00695,0.0039 -0.00382,0 -0.00948,0.0035 -0.012581,0.0078 -0.00582,0.0081 -0.019531,0.01081 -0.019531,0.0039 z"
         id="path36" /><path
         style="fill:#962d2f;fill-opacity:1;stroke-width:0.00682882;stroke-linejoin:bevel"
         d="m 0.33894965,28.165329 c -0.41849155,0.03386 -0.66734836,-0.460185 -0.53557076,-0.819825 0.14655674,-0.511212 1.0237823,-0.528473 1.15531782,0.0016 0.0871298,0.29824 -0.008365,0.728204 -0.359483,0.792175 -0.0850015,0.02087 -0.1729614,0.0271 -0.26026406,0.02601 z"
         id="path38-1" /><path
         style="fill:#962d2f;fill-opacity:1;stroke-width:0.00682882;stroke-linejoin:bevel"
         d="m 17.570969,25.209529 c -0.418492,0.03386 -0.667349,-0.460185 -0.535571,-0.819825 0.146557,-0.511212 1.023782,-0.528473 1.155318,0.0016 0.08713,0.29824 -0.0084,0.728204 -0.359483,0.792175 -0.085,0.02087 -0.172962,0.0271 -0.260264,0.02601 z"
         id="path38-1-3" /><path
         style="fill:#962d2f;fill-opacity:1;stroke-width:0.00682882;stroke-linejoin:bevel"
         d="m 21.570969,25.209529 c -0.418492,0.03386 -0.667349,-0.460185 -0.535571,-0.819825 0.146557,-0.511212 1.023782,-0.528473 1.155318,0.0016 0.08713,0.29824 -0.0084,0.728204 -0.359483,0.792175 -0.085,0.02087 -0.172962,0.0271 -0.260264,0.02601 z"
         id="path38-1-6" /><path
         style="fill:#962d2f;fill-opacity:1;stroke-width:0.00682882;stroke-linejoin:bevel"
         d="m 25.570969,21.209529 c -0.418492,0.03386 -0.667349,-0.460185 -0.535571,-0.819825 0.146557,-0.511212 1.023782,-0.528473 1.155318,0.0016 0.08713,0.29824 -0.0084,0.728204 -0.359483,0.792175 -0.085,0.02087 -0.172962,0.0271 -0.260264,0.02601 z"
         id="path38-1-2" /><path
         style="fill:#962d2f;fill-opacity:1;stroke-width:0.00682882;stroke-linejoin:bevel"
         d="m 28.570969,20.209529 c -0.418492,0.03386 -0.667349,-0.460185 -0.535571,-0.819825 0.146557,-0.511212 1.023782,-0.528473 1.155318,0.0016 0.08713,0.29824 -0.0084,0.728204 -0.359483,0.792175 -0.085,0.02087 -0.172962,0.0271 -0.260264,0.02601 z"
         id="path38-1-5" /><path
         style="fill:#962d2f;fill-opacity:1;stroke-width:0.00682882;stroke-linejoin:bevel"
         d="m 0.57096905,17.209529 c -0.41849155,0.03386 -0.66734836,-0.460185 -0.53557076,-0.819825 0.14655674,-0.511212 1.02378231,-0.528473 1.15531781,0.0016 0.08713,0.29824 -0.00836,0.728204 -0.35948299,0.792175 -0.0850015,0.02087 -0.1729614,0.0271 -0.26026406,0.02601 z"
         id="path38-1-9" /><path
         style="fill:#962d2f;fill-opacity:1;stroke-width:0.00682882;stroke-linejoin:bevel"
         d="m 3.5709691,13.209529 c -0.4184916,0.03386 -0.6673484,-0.460185 -0.5355708,-0.819825 0.1465567,-0.511212 1.0237823,-0.528473 1.1553178,0.0016 0.08713,0.29824 -0.00837,0.728204 -0.359483,0.792175 -0.085001,0.02087 -0.1729614,0.0271 -0.260264,0.02601 z"
         id="path38-1-29" /><path
         style="fill:#962d2f;fill-opacity:1;stroke-width:0.00682882;stroke-linejoin:bevel"
         d="m 2.5709691,11.209529 c -0.4184916,0.03386 -0.6673484,-0.460185 -0.5355708,-0.819825 0.1465567,-0.511212 1.0237823,-0.528473 1.1553178,0.0016 0.08713,0.29824 -0.00836,0.728204 -0.359483,0.792175 -0.085001,0.02087 -0.1729614,0.0271 -0.260264,0.02601 z"
         id="path38-1-7" /><path
         style="fill:#962d2f;fill-opacity:1;stroke-width:0.00682882;stroke-linejoin:bevel"
         d="m 5.5709691,11.209529 c -0.4184916,0.03386 -0.6673484,-0.460185 -0.5355708,-0.819825 0.1465567,-0.511212 1.0237823,-0.528473 1.1553178,0.0016 0.08713,0.29824 -0.00837,0.728204 -0.359483,0.792175 -0.085002,0.02087 -0.1729614,0.0271 -0.260264,0.02601 z"
         id="path38-1-36" /><path
         style="fill:#962d2f;fill-opacity:1;stroke-width:0.00682882;stroke-linejoin:bevel"
         d="m 10.570969,9.209529 c -0.418492,0.03386 -0.6673487,-0.460185 -0.535571,-0.819825 0.146557,-0.511212 1.023782,-0.528473 1.155318,0.0016 0.08713,0.29824 -0.0084,0.728204 -0.359483,0.792175 -0.085,0.02087 -0.172962,0.0271 -0.260264,0.02601 z"
         id="path38-1-20" /><path
         style="fill:#962d2f;fill-opacity:1;stroke-width:0.00682882;stroke-linejoin:bevel"
         d="m 16.570969,7.209529 c -0.418492,0.03386 -0.667349,-0.460185 -0.535571,-0.819825 0.146557,-0.511212 1.023782,-0.528473 1.155318,0.0016 0.08713,0.29824 -0.0084,0.728204 -0.359483,0.792175 -0.085,0.02087 -0.172962,0.0271 -0.260264,0.02601 z"
         id="path38-1-4" /><path
         style="fill:#0857ae;fill-opacity:1;stroke-width:0.00682882;stroke-linejoin:bevel"
         d="m 14.570969,7.209529 c -0.418492,0.03386 -0.667349,-0.460185 -0.535571,-0.819825 0.146557,-0.511212 1.023782,-0.528473 1.155318,0.0016 0.08713,0.29824 -0.0084,0.728204 -0.359483,0.792175 -0.085,0.02087 -0.172962,0.0271 -0.260264,0.02601 z"
         id="path38-1-93" /><path
         style="fill:#0857ae;fill-opacity:1;stroke-width:0.00682882;stroke-linejoin:bevel"
         d="m 31.695969,5.397029 c -0.418492,0.03386 -0.667349,-0.460185 -0.535571,-0.819825 0.146557,-0.511212 1.023782,-0.528473 1.155318,0.0016 0.08713,0.29824 -0.0084,0.728204 -0.359483,0.792175 -0.085,0.02087 -0.172962,0.0271 -0.260264,0.02601 z"
         id="path38-1-93-8" /><path
         style="fill:#0857ae;fill-opacity:1;stroke-width:0.00682882;stroke-linejoin:bevel"
         d="m 8.570969,11.209529 c -0.418492,0.03386 -0.667349,-0.460185 -0.535571,-0.819825 0.146557,-0.511212 1.023782,-0.528473 1.155318,0.0016 0.08713,0.29824 -0.0084,0.728204 -0.359483,0.792175 -0.085,0.02087 -0.172962,0.0271 -0.260264,0.02601 z"
         id="path38-1-93-5" /><path
         style="fill:#652c77;fill-opacity:1;stroke-width:0.00682882;stroke-linejoin:bevel"
         d="m 14.570969,26.209529 c -0.418492,0.03386 -0.667349,-0.460185 -0.535571,-0.819825 0.146557,-0.511212 1.023782,-0.528473 1.155318,0.0016 0.08713,0.29824 -0.0084,0.728204 -0.359483,0.792175 -0.085,0.02087 -0.172962,0.0271 -0.260264,0.02601 z"
         id="path38-1-93-3" /></g></g></svg>
