<?xml version="1.0" encoding="UTF-8" standalone="no"?>
<!-- Created with Inkscape (http://www.inkscape.org/) -->

<svg
   width="10.442mm"
   height="7.6256747mm"
   viewBox="0 0 10.442 7.6256747"
   version="1.1"
   id="svg1"
   xml:space="preserve"
   inkscape:version="1.3.2 (091e20ef0f, 2023-11-25, custom)"
   sodipodi:docname="ipyaladin_dark.svg"
   inkscape:export-filename="ipyaladin_dark.png"
   inkscape:export-xdpi="300"
   inkscape:export-ydpi="300"
   xmlns:inkscape="http://www.inkscape.org/namespaces/inkscape"
   xmlns:sodipodi="http://sodipodi.sourceforge.net/DTD/sodipodi-0.dtd"
   xmlns="http://www.w3.org/2000/svg"
   xmlns:svg="http://www.w3.org/2000/svg"><sodipodi:namedview
     id="namedview1"
     pagecolor="#505050"
     bordercolor="#ffffff"
     borderopacity="1"
     inkscape:showpageshadow="0"
     inkscape:pageopacity="0"
     inkscape:pagecheckerboard="1"
     inkscape:deskcolor="#d1d1d1"
     inkscape:document-units="mm"
     inkscape:zoom="16"
     inkscape:cx="-9.59375"
     inkscape:cy="15.25"
     inkscape:window-width="2560"
     inkscape:window-height="1412"
     inkscape:window-x="0"
     inkscape:window-y="0"
     inkscape:window-maximized="1"
     inkscape:current-layer="layer1" /><defs
     id="defs1"><rect
       x="-46"
       y="16.25"
       width="65.875"
       height="13.875"
       id="rect85" /><inkscape:path-effect
       effect="powerclip"
       id="path-effect84"
       is_visible="true"
       lpeversion="1"
       inverse="true"
       flatten="false"
       hide_clip="false"
       message="Utilise la règle de remplissage « fill-rule: evenodd » de la boîte de dialogue &lt;b&gt;Fond et contour&lt;/b&gt; en l'absence de résultat de mise à plat après une conversion en chemin." /><rect
       x="390.25"
       y="534.5625"
       width="60.25"
       height="17.6875"
       id="rect28" /><filter
       inkscape:label="Pixellize"
       inkscape:menu="Pixel Tools"
       inkscape:menu-tooltip="Reduce or remove antialiasing around shapes"
       style="color-interpolation-filters:sRGB"
       id="filter41"
       x="0"
       y="0"
       width="1"
       height="1"><feColorMatrix
         values="1 0 0 0 0 0 1 0 0 0 0 0 1 0 0 0 0 0 1000 -500 "
         id="feColorMatrix41" /></filter><clipPath
       clipPathUnits="userSpaceOnUse"
       id="clipPath30"><path
         style="fill:none;fill-opacity:1;stroke:#000000;stroke-width:0.0499999;stroke-linejoin:bevel;stroke-dasharray:none;stroke-opacity:1"
         d="m 112.65875,140.92956 c 0,-0.004 0.0586,-0.0585 0.13023,-0.12196 0.1725,-0.15288 0.55567,-0.53607 0.70657,-0.70659 0.72614,-0.82059 1.13293,-1.55366 1.24437,-2.24246 0.0194,-0.11999 0.0194,-0.40752 -1e-4,-0.53273 -0.0449,-0.28879 -0.15403,-0.51088 -0.35211,-0.71646 -0.3546,-0.36805 -0.87776,-0.54816 -1.64214,-0.56536 -0.48236,-0.0109 -0.99564,0.0574 -1.59812,0.21257 -0.68513,0.17643 -1.3446,0.42744 -2.0399,0.77643 -0.14097,0.0708 -0.25911,0.12989 -0.26252,0.13141 -0.003,0.002 -0.006,-8e-4 -0.006,-0.005 0,-0.0228 0.29088,-0.21992 0.57888,-0.39231 0.74046,-0.44323 1.5265,-0.80707 2.26953,-1.0505 0.62799,-0.20574 1.18456,-0.31895 1.77508,-0.36105 0.17786,-0.0127 0.53537,-0.0107 0.671,0.004 0.47346,0.0502 0.82961,0.16784 1.1079,0.36582 0.0862,0.0613 0.2459,0.21889 0.30912,0.30502 0.13279,0.18091 0.20944,0.39911 0.22618,0.64389 0.0298,0.43603 -0.0657,0.83265 -0.32384,1.34451 -0.26921,0.5338 -0.67013,1.0606 -1.23895,1.62791 -0.45546,0.45428 -0.91734,0.84652 -1.40862,1.19627 -0.12561,0.0894 -0.14636,0.10176 -0.14636,0.087 z"
         id="path31" /></clipPath><clipPath
       clipPathUnits="userSpaceOnUse"
       id="clipPath34"><path
         style="fill:none;fill-opacity:1;stroke:#000000;stroke-width:0.0499999;stroke-linejoin:bevel;stroke-dasharray:none;stroke-opacity:1"
         d="m 112.65875,140.92956 c 0,-0.004 0.0586,-0.0585 0.13023,-0.12196 0.1725,-0.15288 0.55567,-0.53607 0.70657,-0.70659 0.72614,-0.82059 1.13293,-1.55366 1.24437,-2.24246 0.0194,-0.11999 0.0194,-0.40752 -1e-4,-0.53273 -0.0449,-0.28879 -0.15403,-0.51088 -0.35211,-0.71646 -0.3546,-0.36805 -0.87776,-0.54816 -1.64214,-0.56536 -0.48236,-0.0109 -0.99564,0.0574 -1.59812,0.21257 -0.68513,0.17643 -1.3446,0.42744 -2.0399,0.77643 -0.14097,0.0708 -0.25911,0.12989 -0.26252,0.13141 -0.003,0.002 -0.006,-8e-4 -0.006,-0.005 0,-0.0228 0.29088,-0.21992 0.57888,-0.39231 0.74046,-0.44323 1.5265,-0.80707 2.26953,-1.0505 0.62799,-0.20574 1.18456,-0.31895 1.77508,-0.36105 0.17786,-0.0127 0.53537,-0.0107 0.671,0.004 0.47346,0.0502 0.82961,0.16784 1.1079,0.36582 0.0862,0.0613 0.2459,0.21889 0.30912,0.30502 0.13279,0.18091 0.20944,0.39911 0.22618,0.64389 0.0298,0.43603 -0.0657,0.83265 -0.32384,1.34451 -0.26921,0.5338 -0.67013,1.0606 -1.23895,1.62791 -0.45546,0.45428 -0.91734,0.84652 -1.40862,1.19627 -0.12561,0.0894 -0.14636,0.10176 -0.14636,0.087 z"
         id="path35" /></clipPath><clipPath
       clipPathUnits="userSpaceOnUse"
       id="clipPath37"><path
         style="fill:none;fill-opacity:1;stroke:#000000;stroke-width:0.0499999;stroke-linejoin:bevel;stroke-dasharray:none;stroke-opacity:1"
         d="m 112.65875,140.92956 c 0,-0.004 0.0586,-0.0585 0.13023,-0.12196 0.1725,-0.15288 0.55567,-0.53607 0.70657,-0.70659 0.72614,-0.82059 1.13293,-1.55366 1.24437,-2.24246 0.0194,-0.11999 0.0194,-0.40752 -1e-4,-0.53273 -0.0449,-0.28879 -0.15403,-0.51088 -0.35211,-0.71646 -0.3546,-0.36805 -0.87776,-0.54816 -1.64214,-0.56536 -0.48236,-0.0109 -0.99564,0.0574 -1.59812,0.21257 -0.68513,0.17643 -1.3446,0.42744 -2.0399,0.77643 -0.14097,0.0708 -0.25911,0.12989 -0.26252,0.13141 -0.003,0.002 -0.006,-8e-4 -0.006,-0.005 0,-0.0228 0.29088,-0.21992 0.57888,-0.39231 0.74046,-0.44323 1.5265,-0.80707 2.26953,-1.0505 0.62799,-0.20574 1.18456,-0.31895 1.77508,-0.36105 0.17786,-0.0127 0.53537,-0.0107 0.671,0.004 0.47346,0.0502 0.82961,0.16784 1.1079,0.36582 0.0862,0.0613 0.2459,0.21889 0.30912,0.30502 0.13279,0.18091 0.20944,0.39911 0.22618,0.64389 0.0298,0.43603 -0.0657,0.83265 -0.32384,1.34451 -0.26921,0.5338 -0.67013,1.0606 -1.23895,1.62791 -0.45546,0.45428 -0.91734,0.84652 -1.40862,1.19627 -0.12561,0.0894 -0.14636,0.10176 -0.14636,0.087 z"
         id="path38" /></clipPath></defs><g
     inkscape:label="Calque 1"
     inkscape:groupmode="layer"
     id="layer1"
     transform="translate(-105.85013,-144.68716)"><ellipse
       style="fill:#962d2f;fill-opacity:1;stroke:#8e8e8e;stroke-width:0.0500695;stroke-linejoin:bevel;stroke-dasharray:none;stroke-opacity:1"
       id="ellipse85"
       transform="matrix(0.82669991,-0.56264309,0.4995377,0.86629215,0,0)"
       clip-path="none"
       cx="21.937796"
       cy="185.68506"
       rx="1.9928916"
       ry="1.0076262" /><path
       style="fill:#962d2f;fill-opacity:1;stroke:#8e8e8e;stroke-width:0.05;stroke-linejoin:bevel;stroke-dasharray:none;stroke-opacity:1"
       d="m 108.92902,151.06198 c -0.71519,-0.0329 -1.18287,-0.34212 -1.29986,-0.85935 -0.0242,-0.10706 -0.0273,-0.35378 -0.006,-0.47866 0.0785,-0.46185 0.34868,-0.97124 0.78679,-1.48376 0.83393,-0.97557 2.16839,-1.82107 3.42001,-2.1669 1.13067,-0.31241 2.03715,-0.18437 2.40471,0.33968 0.38281,0.54577 0.14439,1.42115 -0.63399,2.32763 -1.17295,1.366 -3.22919,2.38778 -4.67153,2.32136 z m 1.0505,-0.56889 c 1.09898,-0.20972 2.29946,-0.91447 3.03912,-1.78411 0.41759,-0.49097 0.6289,-0.94826 0.62334,-1.34892 -0.003,-0.24486 -0.0683,-0.40365 -0.22786,-0.55789 -0.20048,-0.19373 -0.46282,-0.28267 -0.86434,-0.293 -0.78494,-0.0202 -1.84178,0.37752 -2.73062,1.02765 -0.34648,0.25342 -0.76902,0.65475 -0.98626,0.93673 -0.40768,0.52918 -0.58154,1.02498 -0.49471,1.41081 0.0619,0.27498 0.28039,0.48864 0.6003,0.587 0.19635,0.0603 0.30529,0.0715 0.60819,0.0622 0.21673,-0.006 0.29289,-0.0134 0.43284,-0.0404 z"
       id="path84" /><ellipse
       style="display:none;fill:#962d2f;fill-opacity:1;stroke:#000000;stroke-width:0.0389364;stroke-linejoin:bevel;stroke-dasharray:none;stroke-opacity:1"
       id="ellipse84"
       cx="16.705687"
       cy="188.14438"
       rx="3.0070691"
       ry="1.4752626"
       transform="matrix(0.86058582,-0.50930545,0.48996259,0.87174346,0,0)" /><g
       id="g68"
       transform="translate(0,5.0950219)"
       style="stroke:#8e8e8e;stroke-opacity:1"><g
         id="g67"
         transform="rotate(180,108.51203,139.13453)"
         style="stroke:#8e8e8e;stroke-opacity:1"><g
           id="g65"
           transform="translate(-4.6328439,-4.2706274)"
           style="stroke:#8e8e8e;stroke-opacity:1"><path
             style="fill:#0857ae;fill-opacity:1;stroke-width:0.0288107;stroke-linejoin:bevel;stroke:#8e8e8e;stroke-opacity:1"
             d="m 112.56134,140.99863 c -5.4e-4,-0.006 0.0311,-0.0359 0.0704,-0.0656 0.15569,-0.11765 0.48075,-0.38479 0.6373,-0.52375 1.07376,-0.95308 1.77432,-1.98213 1.93198,-2.83782 0.036,-0.19534 0.0428,-0.32874 0.0264,-0.51434 -0.0167,-0.18744 -0.0402,-0.28691 -0.1021,-0.43067 -0.24076,-0.55963 -0.84253,-0.87747 -1.74789,-0.92315 -1.15862,-0.0585 -2.7723,0.41285 -4.2209,1.23283 -0.20941,0.11854 -0.22292,0.12494 -0.21783,0.10325 0.002,-0.008 0.11899,-0.088 0.25991,-0.17649 1.20192,-0.75425 2.49977,-1.27751 3.65308,-1.47284 0.199,-0.0337 0.71139,-0.0807 0.88167,-0.0808 0.81806,-7.9e-4 1.42954,0.20981 1.7758,0.61157 0.26565,0.30823 0.36414,0.73629 0.28304,1.23018 -0.0587,0.35774 -0.23919,0.80072 -0.49355,1.21164 -0.55979,0.9043 -1.44021,1.7706 -2.61461,2.57264 -0.11489,0.0784 -0.12103,0.0816 -0.1227,0.0635 z"
             id="path62"
             clip-path="url(#clipPath34)" /><path
             style="fill:#962d2f;fill-opacity:1;stroke-width:0.0288107;stroke-linejoin:bevel;stroke:#8e8e8e;stroke-opacity:1"
             d="m 112.16035,141.31287 c -0.0547,0.007 -0.0299,2.8e-4 0.009,-0.0294 0.15569,-0.11765 0.43527,-0.36309 0.59182,-0.50205 1.07376,-0.95308 1.77432,-1.98213 1.93198,-2.83782 0.036,-0.19534 0.0428,-0.32874 0.0264,-0.51434 -0.0167,-0.18744 -0.0402,-0.28691 -0.1021,-0.43067 -0.24076,-0.55963 -0.84253,-0.87747 -1.74789,-0.92315 -1.15862,-0.0585 -2.75755,0.43948 -4.2209,1.23283 -0.0585,0.0317 -0.041,0.006 -0.0835,0.0175 0.002,-0.008 -0.0154,-0.002 0.12555,-0.0907 1.20192,-0.75425 2.49977,-1.27751 3.65308,-1.47284 0.199,-0.0337 0.71139,-0.0807 0.88167,-0.0808 0.81806,-7.9e-4 1.42954,0.20981 1.7758,0.61157 0.26565,0.30823 0.36414,0.73629 0.28304,1.23018 -0.0587,0.35774 -0.23919,0.80072 -0.49355,1.21164 -0.59457,1.02976 -1.82895,2.02529 -2.63086,2.57811 z"
             id="path63"
             sodipodi:nodetypes="sssscccsccscscss"
             clip-path="url(#clipPath37)" /><path
             style="fill:#652c77;fill-opacity:1;stroke-width:0.0288107;stroke-linejoin:bevel;stroke:#8e8e8e;stroke-opacity:1"
             d="m 112.32453,141.16778 c -5.4e-4,-0.006 0.0311,-0.0359 0.0704,-0.0656 0.15569,-0.11765 0.48075,-0.38479 0.6373,-0.52375 1.07376,-0.95308 1.77432,-1.98213 1.93198,-2.83782 0.036,-0.19534 0.0428,-0.32874 0.0264,-0.51434 -0.0167,-0.18744 -0.0402,-0.28691 -0.1021,-0.43067 -0.24076,-0.55963 -0.84253,-0.87747 -1.74789,-0.92315 -1.15862,-0.0585 -2.7723,0.41285 -4.2209,1.23283 -0.20941,0.11854 -0.22292,0.12494 -0.21783,0.10325 0.002,-0.008 0.11899,-0.088 0.25991,-0.17649 1.20192,-0.75425 2.49977,-1.27751 3.65308,-1.47284 0.199,-0.0337 0.71139,-0.0807 0.88167,-0.0808 0.81806,-7.9e-4 1.42954,0.20981 1.7758,0.61157 0.26565,0.30823 0.36414,0.73629 0.28304,1.23018 -0.0587,0.35774 -0.23919,0.80072 -0.49355,1.21164 -0.55979,0.9043 -1.44021,1.7706 -2.61461,2.57264 -0.11489,0.0784 -0.12103,0.0816 -0.1227,0.0635 z"
             id="path64"
             clip-path="url(#clipPath30)" /><path
             style="fill:none;fill-opacity:1;stroke:#8e8e8e;stroke-width:0.188976;stroke-linejoin:bevel;stroke-dasharray:none;stroke-opacity:1"
             d="m 425.79687,532.64716 c 0,-0.0136 0.22149,-0.22102 0.49219,-0.46094 0.65197,-0.57783 2.10016,-2.02608 2.6705,-2.6706 2.74446,-3.10144 4.28194,-5.8721 4.70313,-8.47542 0.0734,-0.4535 0.0732,-1.54024 -3.8e-4,-2.01346 -0.16964,-1.09151 -0.58215,-1.9309 -1.33078,-2.7079 -1.34025,-1.39104 -3.31752,-2.07178 -6.20653,-2.1368 -1.82309,-0.041 -3.76305,0.21701 -6.04015,0.80342 -2.58944,0.66684 -5.08193,1.61554 -7.70985,2.93455 -0.53281,0.26743 -0.9793,0.49093 -0.99219,0.49666 -0.0129,0.006 -0.0234,-0.003 -0.0234,-0.0193 0,-0.0861 1.0994,-0.83121 2.18789,-1.48276 2.79859,-1.67521 5.76945,-3.05033 8.57774,-3.97038 2.37352,-0.77762 4.47708,-1.20549 6.70898,-1.36462 0.67222,-0.0479 2.02345,-0.0406 2.53604,0.0138 1.78948,0.18991 3.13556,0.63437 4.18737,1.38262 0.32592,0.23186 0.92938,0.82733 1.1683,1.15284 0.50188,0.68375 0.79158,1.50846 0.85488,2.4336 0.11275,1.648 -0.24831,3.14702 -1.22399,5.08164 -1.01749,2.0175 -2.53278,4.00853 -4.68262,6.15273 -1.72142,1.71693 -3.46711,3.19944 -5.32392,4.52132 -0.47475,0.33797 -0.55317,0.38461 -0.55317,0.32897 z"
             id="path65"
             transform="scale(0.26458333)" /></g><path
           style="fill:none;fill-opacity:1;stroke:#8e8e8e;stroke-width:0.05;stroke-linejoin:bevel;stroke-dasharray:none;stroke-opacity:1"
           d="m 104.28475,132.84022 c 1.28486,-0.66595 2.6625,-1.23281 4.12993,-1.26148 0.62474,0.0176 1.2979,0.21855 1.7205,0.698 0.34893,0.44623 0.30083,1.06821 0.0915,1.56399 -0.37015,0.95587 -1.06488,1.74079 -1.77589,2.46028 -0.10428,0.10168 -0.21062,0.20125 -0.31903,0.29852"
           id="path66"
           sodipodi:nodetypes="cccccc" /><path
           style="fill:none;fill-opacity:1;stroke:#8e8e8e;stroke-width:0.05;stroke-linejoin:bevel;stroke-dasharray:none;stroke-opacity:1"
           d="m 104.83872,132.46299 c 1.28486,-0.66595 2.6625,-1.24729 4.12993,-1.27596 0.62474,0.0176 1.29377,0.21339 1.71637,0.69284 0.34893,0.44623 0.31323,1.10128 0.1039,1.59706 -0.21558,0.55672 -0.51624,1.053 -0.89464,1.50523 -0.27129,0.32422 -0.59675,0.62154 -0.89365,0.92198 -0.10428,0.10168 -0.22716,0.19712 -0.33557,0.29439"
           id="path67"
           sodipodi:nodetypes="ccccscc" /></g><g
         id="g61"
         transform="translate(5.1185624,8.5408963)"
         style="stroke:#8e8e8e;stroke-opacity:1"><g
           id="g59"
           transform="translate(-4.6328439,-4.2706274)"
           style="stroke:#8e8e8e;stroke-opacity:1"><path
             style="fill:#0857ae;fill-opacity:1;stroke-width:0.0288107;stroke-linejoin:bevel;stroke:#8e8e8e;stroke-opacity:1"
             d="m 112.56134,140.99863 c -5.4e-4,-0.006 0.0311,-0.0359 0.0704,-0.0656 0.15569,-0.11765 0.48075,-0.38479 0.6373,-0.52375 1.07376,-0.95308 1.77432,-1.98213 1.93198,-2.83782 0.036,-0.19534 0.0428,-0.32874 0.0264,-0.51434 -0.0167,-0.18744 -0.0402,-0.28691 -0.1021,-0.43067 -0.24076,-0.55963 -0.84253,-0.87747 -1.74789,-0.92315 -1.15862,-0.0585 -2.7723,0.41285 -4.2209,1.23283 -0.20941,0.11854 -0.22292,0.12494 -0.21783,0.10325 0.002,-0.008 0.11899,-0.088 0.25991,-0.17649 1.20192,-0.75425 2.49977,-1.27751 3.65308,-1.47284 0.199,-0.0337 0.71139,-0.0807 0.88167,-0.0808 0.81806,-7.9e-4 1.42954,0.20981 1.7758,0.61157 0.26565,0.30823 0.36414,0.73629 0.28304,1.23018 -0.0587,0.35774 -0.23919,0.80072 -0.49355,1.21164 -0.55979,0.9043 -1.44021,1.7706 -2.61461,2.57264 -0.11489,0.0784 -0.12103,0.0816 -0.1227,0.0635 z"
             id="path56"
             clip-path="url(#clipPath34)" /><path
             style="fill:#962d2f;fill-opacity:1;stroke-width:0.0288107;stroke-linejoin:bevel;stroke:#8e8e8e;stroke-opacity:1"
             d="m 112.16035,141.31287 c -0.0547,0.007 -0.0299,2.8e-4 0.009,-0.0294 0.15569,-0.11765 0.43527,-0.36309 0.59182,-0.50205 1.07376,-0.95308 1.77432,-1.98213 1.93198,-2.83782 0.036,-0.19534 0.0428,-0.32874 0.0264,-0.51434 -0.0167,-0.18744 -0.0402,-0.28691 -0.1021,-0.43067 -0.24076,-0.55963 -0.84253,-0.87747 -1.74789,-0.92315 -1.15862,-0.0585 -2.75755,0.43948 -4.2209,1.23283 -0.0585,0.0317 -0.041,0.006 -0.0835,0.0175 0.002,-0.008 -0.0154,-0.002 0.12555,-0.0907 1.20192,-0.75425 2.49977,-1.27751 3.65308,-1.47284 0.199,-0.0337 0.71139,-0.0807 0.88167,-0.0808 0.81806,-7.9e-4 1.42954,0.20981 1.7758,0.61157 0.26565,0.30823 0.36414,0.73629 0.28304,1.23018 -0.0587,0.35774 -0.23919,0.80072 -0.49355,1.21164 -0.59457,1.02976 -1.82895,2.02529 -2.63086,2.57811 z"
             id="path57"
             sodipodi:nodetypes="sssscccsccscscss"
             clip-path="url(#clipPath37)" /><path
             style="fill:#652c77;fill-opacity:1;stroke-width:0.0288107;stroke-linejoin:bevel;stroke:#8e8e8e;stroke-opacity:1"
             d="m 112.32453,141.16778 c -5.4e-4,-0.006 0.0311,-0.0359 0.0704,-0.0656 0.15569,-0.11765 0.48075,-0.38479 0.6373,-0.52375 1.07376,-0.95308 1.77432,-1.98213 1.93198,-2.83782 0.036,-0.19534 0.0428,-0.32874 0.0264,-0.51434 -0.0167,-0.18744 -0.0402,-0.28691 -0.1021,-0.43067 -0.24076,-0.55963 -0.84253,-0.87747 -1.74789,-0.92315 -1.15862,-0.0585 -2.7723,0.41285 -4.2209,1.23283 -0.20941,0.11854 -0.22292,0.12494 -0.21783,0.10325 0.002,-0.008 0.11899,-0.088 0.25991,-0.17649 1.20192,-0.75425 2.49977,-1.27751 3.65308,-1.47284 0.199,-0.0337 0.71139,-0.0807 0.88167,-0.0808 0.81806,-7.9e-4 1.42954,0.20981 1.7758,0.61157 0.26565,0.30823 0.36414,0.73629 0.28304,1.23018 -0.0587,0.35774 -0.23919,0.80072 -0.49355,1.21164 -0.55979,0.9043 -1.44021,1.7706 -2.61461,2.57264 -0.11489,0.0784 -0.12103,0.0816 -0.1227,0.0635 z"
             id="path58"
             clip-path="url(#clipPath30)" /><path
             style="fill:none;fill-opacity:1;stroke:#8e8e8e;stroke-width:0.188976;stroke-linejoin:bevel;stroke-dasharray:none;stroke-opacity:1"
             d="m 425.79687,532.64716 c 0,-0.0136 0.22149,-0.22102 0.49219,-0.46094 0.65197,-0.57783 2.10016,-2.02608 2.6705,-2.6706 2.74446,-3.10144 4.28194,-5.8721 4.70313,-8.47542 0.0734,-0.4535 0.0732,-1.54024 -3.8e-4,-2.01346 -0.16964,-1.09151 -0.58215,-1.9309 -1.33078,-2.7079 -1.34025,-1.39104 -3.31752,-2.07178 -6.20653,-2.1368 -1.82309,-0.041 -3.76305,0.21701 -6.04015,0.80342 -2.58944,0.66684 -5.08193,1.61554 -7.70985,2.93455 -0.53281,0.26743 -0.9793,0.49093 -0.99219,0.49666 -0.0129,0.006 -0.0234,-0.003 -0.0234,-0.0193 0,-0.0861 1.0994,-0.83121 2.18789,-1.48276 2.79859,-1.67521 5.76945,-3.05033 8.57774,-3.97038 2.37352,-0.77762 4.47708,-1.20549 6.70898,-1.36462 0.67222,-0.0479 2.02345,-0.0406 2.53604,0.0138 1.78948,0.18991 3.13556,0.63437 4.18737,1.38262 0.32592,0.23186 0.92938,0.82733 1.1683,1.15284 0.50188,0.68375 0.79158,1.50846 0.85488,2.4336 0.11275,1.648 -0.24831,3.14702 -1.22399,5.08164 -1.01749,2.0175 -2.53278,4.00853 -4.68262,6.15273 -1.72142,1.71693 -3.46711,3.19944 -5.32392,4.52132 -0.47475,0.33797 -0.55317,0.38461 -0.55317,0.32897 z"
             id="path59"
             transform="scale(0.26458333)" /></g><path
           style="fill:none;fill-opacity:1;stroke:#8e8e8e;stroke-width:0.05;stroke-linejoin:bevel;stroke-dasharray:none;stroke-opacity:1"
           d="m 104.28475,132.84022 c 1.28486,-0.66595 2.6625,-1.23281 4.12993,-1.26148 0.62474,0.0176 1.2979,0.21855 1.7205,0.698 0.34893,0.44623 0.30083,1.06821 0.0915,1.56399 -0.37015,0.95587 -1.06488,1.74079 -1.77589,2.46028 -0.10428,0.10168 -0.21062,0.20125 -0.31903,0.29852"
           id="path60"
           sodipodi:nodetypes="cccccc" /><path
           style="fill:none;fill-opacity:1;stroke:#8e8e8e;stroke-width:0.05;stroke-linejoin:bevel;stroke-dasharray:none;stroke-opacity:1"
           d="m 104.83872,132.46299 c 1.28486,-0.66595 2.6625,-1.24729 4.12993,-1.27596 0.62474,0.0176 1.29377,0.21339 1.71637,0.69284 0.34893,0.44623 0.31323,1.10128 0.1039,1.59706 -0.21558,0.55672 -0.51624,1.053 -0.89464,1.50523 -0.27129,0.32422 -0.59675,0.62154 -0.89365,0.92198 -0.10428,0.10168 -0.22716,0.19712 -0.33557,0.29439"
           id="path61"
           sodipodi:nodetypes="ccccscc" /></g></g><circle
       style="fill:#962d2f;fill-opacity:1;stroke:#8e8e8e;stroke-width:0.0499999;stroke-linejoin:bevel;stroke-dasharray:none;stroke-opacity:1"
       id="path43"
       cx="107.37428"
       cy="147.28847"
       r="0.17247236" /><circle
       style="fill:#962d2f;fill-opacity:1;stroke:#8e8e8e;stroke-width:0.0499999;stroke-linejoin:bevel;stroke-dasharray:none;stroke-opacity:1"
       id="path44"
       cx="108.43098"
       cy="146.38792"
       r="0.28355625" /><circle
       style="fill:#962d2f;fill-opacity:1;stroke:#8e8e8e;stroke-width:0.0499999;stroke-linejoin:bevel;stroke-dasharray:none;stroke-opacity:1"
       id="path45"
       cx="107.43014"
       cy="146.44548"
       r="0.14031649" /><circle
       style="fill:#0857ae;fill-opacity:1;stroke:#8e8e8e;stroke-width:0.0499999;stroke-linejoin:bevel;stroke-dasharray:none;stroke-opacity:1"
       id="circle48"
       cx="109.43105"
       cy="145.94939"
       r="0.14031649" /><circle
       style="fill:#0857ae;fill-opacity:1;stroke:#8e8e8e;stroke-width:0.0499999;stroke-linejoin:bevel;stroke-dasharray:none;stroke-opacity:1"
       id="circle48-6"
       cx="110.3422"
       cy="145.58806"
       r="0.14031649" /><g
       id="g72"
       transform="rotate(180,110.59027,148.79879)"
       style="stroke:#8e8e8e;stroke-opacity:1"><circle
         style="fill:#962d2f;fill-opacity:1;stroke:#8e8e8e;stroke-width:0.0499999;stroke-linejoin:bevel;stroke-dasharray:none;stroke-opacity:1"
         id="circle68"
         cx="107.37428"
         cy="147.28847"
         r="0.17247236" /><circle
         style="fill:#962d2f;fill-opacity:1;stroke:#8e8e8e;stroke-width:0.0499999;stroke-linejoin:bevel;stroke-dasharray:none;stroke-opacity:1"
         id="circle69"
         cx="108.43098"
         cy="146.38792"
         r="0.28355625" /><circle
         style="fill:#962d2f;fill-opacity:1;stroke:#8e8e8e;stroke-width:0.0499999;stroke-linejoin:bevel;stroke-dasharray:none;stroke-opacity:1"
         id="circle70"
         cx="107.43014"
         cy="146.44548"
         r="0.14031649" /><circle
         style="fill:#0857ae;fill-opacity:1;stroke:#8e8e8e;stroke-width:0.0499999;stroke-linejoin:bevel;stroke-dasharray:none;stroke-opacity:1"
         id="circle71"
         cx="109.43105"
         cy="145.94939"
         r="0.14031649" /><circle
         style="fill:#0857ae;fill-opacity:1;stroke:#8e8e8e;stroke-width:0.0499999;stroke-linejoin:bevel;stroke-dasharray:none;stroke-opacity:1"
         id="circle72"
         cx="110.3422"
         cy="145.58806"
         r="0.14031649" /></g><text
       xml:space="preserve"
       transform="matrix(0.2355802,0,0,0.2355802,116.58621,143.22782)"
       id="text85"
       style="font-style:normal;font-variant:normal;font-weight:normal;font-stretch:normal;font-size:10.6667px;line-height:100%;font-family:Stop;-inkscape-font-specification:'Stop, Normal';font-variant-ligatures:normal;font-variant-caps:normal;font-variant-numeric:normal;font-variant-east-asian:normal;letter-spacing:-1.62px;word-spacing:-0.05px;white-space:pre;shape-inside:url(#rect85);display:inline;fill:#8e8e8e;fill-opacity:1;stroke:none;stroke-width:0.188976;stroke-linejoin:bevel;stroke-dasharray:none;stroke-opacity:1"><tspan
         x="-46"
         y="26.9167"
         id="tspan2"><tspan
           dx="0 0.050000001 0 -0.050000072 0.05000012 -0.050000072 0.05000012 -0.050000548 0.050001074 -0.050001502 0.050000597 0 -0.049999595 0.049999166 -0.049999595 0.050000597 -0.050001502 0.050001074 -0.050001502"
           id="tspan1">i  p y a l  a d i n</tspan></tspan></text></g></svg>
